<svg width="340" height="263" viewBox="0 0 340 263" fill="none" xmlns="http://www.w3.org/2000/svg">
<path opacity="0.5" d="M269.941 3.20194C275.813 4.79906 281.502 7.10601 286.09 11.0101C304.073 26.094 296.916 57.1491 313.799 73.2978C317.469 76.847 321.873 79.3314 325.727 82.5256C337.104 92.1083 341.692 108.434 337.104 122.276C333.067 134.343 322.791 144.636 322.24 157.413C322.057 165.576 325.91 173.207 329.948 180.305C333.985 187.403 338.389 194.679 339.123 202.842C339.857 211.005 335.636 220.055 327.745 222.362C324.075 223.427 319.855 222.895 316.001 223.427C303.523 225.024 295.081 236.204 285.906 244.545C273.061 255.902 256.178 262.468 238.928 263C237.827 259.806 236.543 256.612 235.442 253.418C172.316 258.564 108.639 257.499 45.6963 250.046C36.7044 248.981 27.3456 247.739 19.0878 243.835C10.8301 239.931 3.67332 233.187 1.83825 224.492C-0.547329 213.667 5.87539 203.02 8.07747 192.017C13.7662 163.269 -8.4381 132.391 3.67332 105.418C12.6651 85.3649 37.8055 75.7822 46.9808 55.9069C50.1004 48.9861 51.2014 41.3554 53.7705 34.4345C59.8262 19.1731 73.7727 7.46093 89.9213 2.66957C106.07 -2.1218 123.87 -0.169759 139.101 6.39618C152.497 12.2523 165.159 21.6576 179.656 20.9477C191.951 20.4154 202.227 12.6072 213.421 7.63839C230.854 -0.347216 251.407 -1.94434 269.941 3.20194Z" fill="#D9F2C9"/>
<path d="M243.544 203.894L248.242 220.599C248.242 220.599 251.681 224.907 253.228 228.981H226.582L231.166 222.055L227.556 203.836H243.544V203.894Z" fill="#9BB9B9"/>
<path d="M231.166 222.111L226.582 229.038H253.228C251.681 224.963 248.242 220.656 248.242 220.656C235.292 216.931 231.166 222.111 231.166 222.111Z" fill="#233332"/>
<path d="M226.582 229.039C226.582 229.039 230.593 221.821 240.679 223.101C250.821 224.382 253.228 229.039 253.228 229.039H226.582Z" fill="#9BB9B9"/>
<path d="M232.484 212.391L233.573 220.481" stroke="#F9F9F9" stroke-miterlimit="10" stroke-linecap="round" stroke-linejoin="round"/>
<path d="M237.816 212.391L238.962 219.317" stroke="#F9F9F9" stroke-miterlimit="10" stroke-linecap="round" stroke-linejoin="round"/>
<path d="M243.086 212.391L244.175 219.666" stroke="#F9F9F9" stroke-miterlimit="10" stroke-linecap="round" stroke-linejoin="round"/>
<path d="M186.583 201.332L187.729 219.667C187.729 219.667 177.243 224.44 175.523 228.864H204.118V201.332H186.583Z" fill="#9BB9B9"/>
<path d="M204.06 222.462C200.966 225.023 197.47 223.801 195.178 223.161C193.631 222.753 190.25 220.658 187.672 219.727C186.812 220.134 177.185 224.616 175.523 228.923H204.118V222.462H204.06Z" fill="#233332"/>
<path d="M185.782 227.118C185.495 225.197 182.917 223.742 181.427 223.102C178.848 224.79 176.212 226.885 175.41 228.922H204.004V227.176H185.782V227.118Z" fill="#9BB9B9"/>
<path d="M189.793 212.391V220.831" stroke="#F9F9F9" stroke-miterlimit="10" stroke-linecap="round" stroke-linejoin="round"/>
<path d="M195.406 212.391V223.217" stroke="#F9F9F9" stroke-miterlimit="10" stroke-linecap="round" stroke-linejoin="round"/>
<path d="M200.909 212.391L200.336 223.974" stroke="#F9F9F9" stroke-miterlimit="10" stroke-linecap="round" stroke-linejoin="round"/>
<path d="M186.067 109.133C186.067 109.133 180.394 161.111 182.113 177.409C183.833 193.707 184.463 212.333 184.463 212.333H208.129C208.129 212.333 209.848 192.368 206.983 176.943L208.129 153.137L225.32 212.333H248.413C248.413 212.333 250.82 191.961 240.792 174.499C236.494 166.99 238.098 134.453 226.294 109.133H186.067Z" fill="#4D60A4"/>
<path d="M189.791 171.646C189.791 165.651 186.582 160.762 182.628 160.762C182.399 160.762 182.227 160.762 181.998 160.82C181.769 167.63 181.711 173.567 182.17 177.467C182.342 179.155 182.514 180.843 182.686 182.531C186.582 182.473 189.791 177.642 189.791 171.646Z" fill="#3C4A77"/>
<path d="M208.131 153.195C208.131 153.195 194.952 141.496 199.822 109.133" stroke="#3C4A77" stroke-miterlimit="10" stroke-linecap="round" stroke-linejoin="round"/>
<path d="M226.273 182.357C229.662 181.702 231.546 176.563 230.481 170.878C229.416 165.194 225.806 161.116 222.417 161.771C219.028 162.426 217.144 167.565 218.209 173.25C219.274 178.934 222.884 183.012 226.273 182.357Z" fill="#3C4A77"/>
<path d="M195.406 109.133C195.406 109.133 190.536 132.939 199.933 135.384" stroke="#3C4A77" stroke-miterlimit="10" stroke-linecap="round" stroke-linejoin="round"/>
<path d="M218.727 109.133L224.571 132.241L234.313 135.442" stroke="#3C4A77" stroke-miterlimit="10" stroke-linecap="round" stroke-linejoin="round"/>
<path d="M244.175 212.393C244.175 212.393 241.768 188.005 236.783 174.85C231.797 161.637 230.25 134.105 230.25 134.105" stroke="#3C4A77" stroke-miterlimit="10" stroke-linecap="round" stroke-linejoin="round"/>
<path d="M203.428 212.392L200.506 177.818C200.391 176.595 200.391 175.431 200.563 174.209L203.485 146.328" stroke="#3C4A77" stroke-miterlimit="10" stroke-linecap="round" stroke-linejoin="round"/>
<path d="M188.132 19.0872C187.33 19.029 186.7 19.4946 186.012 19.3782C186.757 18.2141 187.731 16.9336 188.075 15.4784C188.304 14.3143 188.304 12.9755 188.075 11.7532C188.017 11.404 187.616 10.1234 187.043 10.4144C186.585 10.6473 186.585 12.5681 186.585 13.0337C186.413 12.1606 186.413 11.2293 186.069 10.3562C185.897 9.89058 185.553 9.1339 185.095 8.90107C184.121 8.43542 184.579 10.7637 184.694 11.2293C184.579 10.8219 183.892 8.95928 183.261 10.007C182.746 10.9383 183.548 12.4517 183.319 13.383C183.089 12.7427 182.459 10.5891 181.485 10.7055C180.797 10.7637 181.256 12.1024 181.37 12.5681C181.542 13.1501 181.771 13.965 181.313 14.4307C181.084 14.6635 180.797 14.8381 180.568 15.071C180.282 15.362 180.11 15.7112 179.881 16.0605C179.307 16.9336 178.964 17.7485 178.906 18.7962C177.359 19.3782 166.242 24.093 161.716 37.1894C156.902 51.2754 157.762 55.408 163.893 59.7735C166.644 61.7525 171.915 66.118 176.843 70.3089C178.448 64.3718 180.74 56.1065 182.001 51.3336L175.239 47.3755C175.239 47.3755 179.422 28.1674 182.918 22.8124C183.605 22.5214 184.293 22.5214 185.038 22.2303C186.069 21.8811 186.757 20.7752 187.846 20.5424C188.247 20.4842 189.966 20.7752 190.023 20.1931C190.138 19.4946 188.591 19.1454 188.132 19.0872Z" fill="#E6817D"/>
<path d="M175.179 47.4336C175.179 47.4336 166.583 51.508 160.91 57.2705C161.712 58.1436 162.687 59.0167 163.89 59.8316C166.64 61.8106 171.912 66.1761 176.84 70.3669C178.445 64.4299 180.737 56.1646 181.998 51.3916L175.179 47.4336Z" fill="#AA3F37"/>
<path d="M180.164 20.0787C180.164 20.0787 181.138 16.6445 186.009 19.322" stroke="#D85145" stroke-miterlimit="10" stroke-linecap="round" stroke-linejoin="round"/>
<path d="M181.312 14.4899C181.312 14.4899 183.777 14.1406 185.61 15.5958" stroke="#D85145" stroke-miterlimit="10" stroke-linecap="round" stroke-linejoin="round"/>
<path d="M232.942 124.151C232.942 124.151 231.853 121.008 230.421 116.875L228.645 124.675C231.911 122.812 232.942 124.151 232.942 124.151Z" fill="#00918C"/>
<path d="M229.045 112.916C226.696 106.048 224.174 98.3064 224.174 97.1423C224.174 94.9304 224.633 91.7291 224.633 91.7291L230.019 105.291L248.012 99.0049C246.408 94.8722 243.6 87.7128 240.334 80.9027C235.864 71.6479 229.274 63.6154 216.954 61.8692L213.115 60.8215L213.573 58.144L199.248 56.9798L198.847 59.8902L175.123 47.4922C167.044 56.5724 168.476 60.7633 164.293 65.8854C170.31 71.0076 184.578 78.6908 184.578 78.6908C184.578 78.6908 183.547 95.0469 183.547 106.746C183.547 113.615 180.567 119.552 180.567 119.552C180.567 119.552 189.506 126.42 197.93 127.875L203.431 120.716L205.436 130.902C205.436 130.902 216.897 134.86 223.945 128.283C224.805 127.526 225.55 126.828 226.237 126.304C227.097 125.663 227.842 125.14 228.529 124.732C231.853 122.87 232.827 124.208 232.827 124.208C232.827 124.208 231.738 121.065 230.306 116.932C229.962 115.652 229.504 114.255 229.045 112.916Z" fill="#00918C"/>
<path d="M199.305 56.9219C199.305 56.9219 202.227 59.774 205.837 60.3561C205.837 60.3561 206.697 60.8217 213.63 58.086L199.305 56.9219Z" fill="#3C4A77"/>
<path d="M203.543 120.657C203.543 120.657 199.131 92.8929 203.543 72.8699C203.543 72.8699 205.491 64.8956 205.663 60.3555" stroke="#007F7A" stroke-miterlimit="10" stroke-linecap="round" stroke-linejoin="round"/>
<path d="M184.637 78.5751C184.637 78.5751 185.611 68.9711 189.393 62.8594" stroke="#007F7A" stroke-miterlimit="10" stroke-linecap="round" stroke-linejoin="round"/>
<path d="M224.633 91.668L226.352 77" stroke="#007F7A" stroke-miterlimit="10" stroke-linecap="round" stroke-linejoin="round"/>
<path d="M169.906 69.8449L179.705 50.0547" stroke="#007F7A" stroke-miterlimit="10" stroke-linecap="round" stroke-linejoin="round"/>
<path d="M227.898 99.7626L245.147 91.6719" stroke="#007F7A" stroke-miterlimit="10" stroke-linecap="round" stroke-linejoin="round"/>
<path d="M220.892 78.1466L208.719 77.2539L208.492 80.4469L220.666 81.3396L220.892 78.1466Z" stroke="#007F7A" stroke-miterlimit="10" stroke-linecap="round" stroke-linejoin="round"/>
<path d="M198.906 59.832L201.599 63.9647L205.668 60.7633L208.59 64.8378L213.232 60.8215" stroke="#007F7A" stroke-miterlimit="10" stroke-linecap="round" stroke-linejoin="round"/>
<path d="M248.358 100.576L247.613 99.0625L232.542 104.359L233.058 105.232L227.729 128.34C227.098 129.563 225.666 129.912 224.405 130.203C223.718 130.319 223.145 130.494 222.686 131.076C221.884 131.891 221.999 133.055 221.368 133.986C221.082 134.452 220.108 135.674 221.483 135.325C222.17 135.15 222.858 134.277 223.317 133.754C224.233 132.706 225.15 132.531 226.411 132.764C227.672 132.997 228.989 133.404 230.25 133.695C231.11 133.928 231.912 134.394 232.771 134.568C233.23 133.521 233.574 132.473 233.803 131.367C234.376 130.96 245.665 123.393 249.045 105.698C249.447 104.01 249.16 102.147 248.358 100.576Z" fill="#E6817D"/>
<path d="M248.359 100.576L247.614 99.0625L232.543 104.359L233.059 105.174L248.932 101.973C248.817 101.507 248.588 101.042 248.359 100.576Z" fill="#AA3F37"/>
<path d="M202.973 50.5195L201.941 58.9013C201.941 58.9013 203.603 60.0654 205.666 60.3564C206.812 60.531 207.213 60.4146 209.333 59.6579V51.1598L202.973 50.5195Z" fill="#E6817D"/>
<path d="M202.97 50.5195L202.512 54.1865C203.887 57.2133 209.331 57.3879 209.331 57.3879V51.1598L202.97 50.5195Z" fill="#AA3F37"/>
<path d="M202.911 44.8756C202.911 44.8756 200.561 40.2191 199.243 42.8384C198.097 44.992 200.332 47.3785 202.681 46.8547L202.911 44.8756Z" fill="#AA3F37"/>
<path d="M209.559 45.2786C209.559 45.2786 212.768 41.2042 213.57 44.0563C214.257 46.3845 211.564 48.2471 209.387 47.2576L209.559 45.2786Z" fill="#AA3F37"/>
<path d="M201.192 45.8636C200.332 45.2233 200.046 43.8845 199.931 42.895C199.874 42.4294 199.759 41.9055 199.759 41.4399C199.759 41.0324 200.103 40.5086 200.103 40.1593C198.9 39.9847 199.301 38.1803 199.702 37.4818C200.561 36.1431 201.707 35.2118 203.312 34.9207C204.172 34.7461 205.031 34.979 205.891 35.0954C205.604 34.8625 205.432 34.5715 205.432 34.1641C205.661 34.979 207.667 34.8625 208.297 34.979C209.615 35.2118 210.303 35.9103 210.876 37.0162C211.621 36.4923 213.168 37.1908 213.455 37.8893C213.913 38.9952 213.512 40.2757 213.283 41.4399C212.996 42.7786 213.225 44.6412 212.423 45.8053C211.506 47.1441 208.756 46.5038 207.495 46.3292C206.005 46.1546 204.458 45.7471 202.968 45.8636C202.51 45.8636 201.707 45.8053 201.192 45.8636Z" fill="#233332"/>
<path d="M211.906 41.9625C211.906 41.3222 211.39 40.8566 210.76 40.9148C210.244 40.973 209.671 41.0894 209.27 41.2058C208.983 41.264 208.582 41.555 208.353 41.6132C207.952 41.6715 207.322 41.2058 206.92 41.0894C207.035 41.2058 207.092 41.4386 207.15 41.555C205.545 41.1476 203.826 40.7402 202.164 40.3909C201.591 40.2745 201.018 40.6819 200.961 41.3222C200.846 42.5446 200.789 44.2907 200.789 44.5236C201.247 51.7994 201.477 52.7307 205.774 53.4292C210.072 54.1276 211.218 49.0637 211.447 46.8518C211.505 46.3862 211.505 45.7459 211.677 44.8728C211.734 44.6982 211.734 44.4654 211.734 44.2907C211.791 43.7669 211.906 42.7192 211.906 41.9625Z" fill="#E6817D"/>
<path d="M200.846 45.3984C201.018 45.5731 200.903 46.5044 200.846 46.7954C200.732 47.4357 200.502 48.0177 200.273 48.5998C199.757 49.9967 199.7 51.5101 200.617 52.7324C201.935 54.5951 205.029 55.0025 207.092 54.5951C208.124 54.3622 209.327 54.0712 210.072 53.3145C210.759 52.616 211.103 51.6265 211.333 50.6952C211.676 49.2983 211.906 47.4939 211.562 46.0969C211.161 46.9118 210.989 48.8908 209.843 49.1237C208.754 49.3565 208.639 48.2506 207.952 47.7849C207.207 47.261 205.889 47.2028 205.029 47.2028C204.342 47.2028 203.711 47.3775 203.138 47.7849C202.794 48.0177 202.508 48.4252 202.049 48.1923C201.247 47.8431 201.305 46.2133 200.846 45.3984Z" fill="#233332"/>
<path d="M204.405 45.1641C204.722 45.1641 204.978 44.9035 204.978 44.5821C204.978 44.2606 204.722 44 204.405 44C204.089 44 203.832 44.2606 203.832 44.5821C203.832 44.9035 204.089 45.1641 204.405 45.1641Z" fill="#233332"/>
<path d="M208.128 45.4532C208.444 45.4532 208.701 45.1926 208.701 44.8711C208.701 44.5497 208.444 44.2891 208.128 44.2891C207.811 44.2891 207.555 44.5497 207.555 44.8711C207.555 45.1926 207.811 45.4532 208.128 45.4532Z" fill="#233332"/>
<path d="M205.55 43.7652C205.722 44.1145 205.607 44.5219 205.607 44.8712C205.493 45.6278 205.321 46.3263 205.149 47.083C205.034 47.6069 204.633 48.48 204.863 49.0038C204.92 49.2366 205.206 49.4113 205.436 49.4113C206.009 49.4695 206.352 48.8292 206.524 48.3635L206.754 47.8397C206.983 47.3158 207.04 46.6756 206.925 46.0935L206.524 43.707H205.55V43.7652Z" fill="#E6817D"/>
<path d="M205.55 43.7656C205.722 44.1149 205.607 44.5223 205.607 44.8715C205.493 45.6282 205.321 46.3267 205.149 47.0834C205.034 47.6073 204.633 48.4803 204.863 49.0042C204.92 49.237 205.206 49.4117 205.436 49.4117C206.009 49.4699 206.352 48.8296 206.524 48.3639" stroke="#AA3F37" stroke-miterlimit="10" stroke-linecap="round" stroke-linejoin="round"/>
<path d="M204.46 49.9383C204.861 50.2875 205.548 50.2875 206.007 50.2293C206.523 50.1129 206.809 49.7637 207.21 49.4727C207.096 50.2875 206.924 50.986 206.007 51.2189C205.491 51.3353 204.803 51.2188 204.402 50.8114C204.517 50.6368 204.517 50.1711 204.46 49.9383Z" fill="#F9F9F9"/>
<path d="M203.484 42.8932C203.714 42.4275 204.63 42.4857 204.86 42.7768" stroke="#233332" stroke-miterlimit="10" stroke-linecap="round" stroke-linejoin="round"/>
<path d="M207.438 43.1269C207.609 42.9523 207.953 42.8358 208.297 42.894C208.469 42.9523 208.927 43.1269 208.927 43.3015" stroke="#233332" stroke-miterlimit="10" stroke-linecap="round" stroke-linejoin="round"/>
<path d="M66.1781 212.097L63.1984 220.654C63.1984 220.654 51.7378 224.321 51.8524 228.511C51.967 232.702 75.06 227.755 75.06 227.755L79.9308 212.039H66.1781V212.097Z" fill="#4D60A4"/>
<path d="M68.6964 222.579C70.8739 224.674 73.5671 221.822 76.8907 221.88L79.9277 212.102H66.1751L63.1953 220.658C63.1953 220.658 65.8885 219.843 68.6964 222.579Z" fill="#FADB81"/>
<path d="M56.4961 223.332C56.4961 223.332 60.1062 223.1 62.341 226.068" stroke="#769494" stroke-miterlimit="10" stroke-linecap="round" stroke-linejoin="round"/>
<path d="M58.6133 222.459C58.6133 222.459 61.4211 220.771 63.8278 225.078" stroke="#769494" stroke-miterlimit="10" stroke-linecap="round" stroke-linejoin="round"/>
<path d="M61.25 221.353C61.25 221.353 64.5163 219.49 65.4331 224.322" stroke="#769494" stroke-miterlimit="10" stroke-linecap="round" stroke-linejoin="round"/>
<path d="M137.344 211.457L138.089 220.537C138.089 220.537 148.289 226.998 147.085 231.072C145.882 235.089 124.794 224.379 124.794 224.379L123.992 207.906L137.344 211.457Z" fill="#4D60A4"/>
<path d="M132.244 220.945C129.608 222.4 127.717 218.966 124.508 218.151L123.992 207.965L137.286 211.515L138.031 220.596C138.089 220.537 135.682 219.024 132.244 220.945Z" fill="#FADB81"/>
<path d="M143.878 224.845C143.878 224.845 140.439 223.681 137.574 225.951" stroke="#769494" stroke-miterlimit="10" stroke-linecap="round" stroke-linejoin="round"/>
<path d="M142.043 223.445C142.043 223.445 139.751 221.117 136.312 224.667" stroke="#769494" stroke-miterlimit="10" stroke-linecap="round" stroke-linejoin="round"/>
<path d="M139.807 221.701C139.807 221.701 137.114 219.082 135.051 223.447" stroke="#769494" stroke-miterlimit="10" stroke-linecap="round" stroke-linejoin="round"/>
<path d="M92.4223 95.1016C92.4223 95.1016 88.6976 110.526 78.9561 135.264C69.2147 160.002 63.4844 215.589 63.4844 215.589H85.0875L112.478 148.651L122.162 214.134L140.155 212.679C140.155 212.679 150.527 160.002 143.135 132.063C137.921 112.272 133.394 97.7209 133.394 97.7209L92.4223 95.1016Z" fill="#233332"/>
<path d="M112.484 148.649C112.484 148.649 118.558 126.997 117.928 105.344" stroke="#769494" stroke-miterlimit="10" stroke-linecap="round" stroke-linejoin="round"/>
<path d="M64.2305 208.777H87.8392" stroke="#769494" stroke-miterlimit="10" stroke-linecap="round" stroke-linejoin="round"/>
<path d="M121.016 206.336L141.014 207.908" stroke="#769494" stroke-miterlimit="10" stroke-linecap="round" stroke-linejoin="round"/>
<path d="M86.6914 114.075C86.6914 114.075 96.7767 113.435 100.387 101.328" stroke="#769494" stroke-miterlimit="10" stroke-linecap="round" stroke-linejoin="round"/>
<path d="M128.863 103.602C128.863 103.602 130.009 113.497 138.433 114.894" stroke="#769494" stroke-miterlimit="10" stroke-linecap="round" stroke-linejoin="round"/>
<path d="M117.059 123.68C117.059 123.68 121.299 122.982 121.815 120.304C122.273 117.569 122.216 104.996 122.216 104.996" stroke="#769494" stroke-miterlimit="10" stroke-linecap="round" stroke-linejoin="round"/>
<path d="M91.8516 97.142C91.8516 97.142 102.51 103.719 113.799 105.058C125.087 106.397 134.485 101.333 134.485 101.333L128.067 58.8422C128.067 58.8422 118.784 55.1752 112.423 53.8946C106.005 52.6141 96.4358 52.6723 96.4358 52.6723C96.4358 52.6723 93.6853 88.8767 91.8516 97.142Z" fill="#FADB81"/>
<path d="M160.724 37.9423C160.896 36.72 161.125 35.032 161.756 33.9261C161.985 33.4604 162.386 33.2276 162.787 32.9366C163.36 32.4709 163.761 31.656 164.048 30.9575C164.334 30.2009 164.563 29.4442 164.907 28.6875C165.079 28.3383 165.423 27.8144 165.423 27.4652C165.423 26.8249 164.907 26.8831 164.506 27.2323C163.99 27.7562 163.99 28.8039 163.417 29.2696C163.245 29.386 162.959 29.5606 162.787 29.386C162.615 29.1531 163.016 28.6293 163.131 28.3965C163.303 28.1054 164.85 25.0787 163.36 25.3697C162.787 25.4861 162.443 26.8831 162.271 27.4069C162.099 27.8726 161.813 29.2113 161.182 29.2113C160.151 29.2696 162.329 25.2533 161.068 24.7877C160.208 24.4384 159.979 26.1264 159.865 26.6503C159.807 26.9995 159.578 28.5711 159.177 28.5711C158.547 28.6293 159.463 25.2533 158.661 24.7295C157.63 24.0892 157.744 26.4756 157.687 26.9413C157.572 27.7562 157.4 28.5711 157.171 29.4442C157.114 29.677 157.114 30.2009 156.827 30.3173C156.254 30.5501 156.025 29.0367 155.853 28.6875C155.681 28.28 155.567 27.4652 155.108 27.2905C154.535 27.0577 154.421 27.698 154.478 28.1054C154.593 28.9785 154.879 29.7934 154.822 30.7247C154.765 31.656 154.765 32.4127 155.51 33.053C155.796 33.344 156.254 33.4022 156.484 33.7515C156.885 34.3917 156.885 35.4976 156.885 36.2543C156.885 37.011 156.827 37.7677 156.885 38.4662C158.203 38.5244 159.406 38.4662 160.667 38.0587C160.609 38.1169 160.552 38.1751 160.724 37.9423Z" fill="#E6817D"/>
<path d="M159.464 32.9392C159.464 32.9392 158.948 31.1348 156.828 30.2617" stroke="#D85145" stroke-miterlimit="10" stroke-linecap="round" stroke-linejoin="round"/>
<path d="M163.187 30.3181L157.973 28.8047" stroke="#D85145" stroke-miterlimit="10" stroke-linecap="round" stroke-linejoin="round"/>
<path d="M123.652 101.039V106.86C123.652 106.86 126.804 109.479 131.216 109.072C135.629 108.664 137.52 108.198 137.52 108.198L136.488 101.097H123.652V101.039Z" fill="#3C4A77"/>
<path d="M155.168 39.1647L155.798 33.7515C155.798 33.7515 159.179 33.5187 162.56 35.3813L160.841 40.6781L155.168 39.1647Z" fill="#3C4A77"/>
<path d="M115.973 54.9382C115.973 54.9382 119.411 56.9173 119.411 63.7274C119.411 70.5376 118.379 100.456 124.282 103.075C130.184 105.694 138.894 105.811 138.607 100.397C138.321 94.9843 134.424 90.2113 134.31 85.5548C134.195 80.8983 133.335 75.7179 133.335 75.7179C133.335 75.7179 150.24 75.6597 158.09 75.1941C159.809 75.0777 161.356 74.2046 162.331 72.8076C163.419 71.1778 164.623 68.7332 164.279 65.9392C163.763 61.5156 161.414 49.1176 162.56 42.3656C162.789 40.7941 161.872 39.2807 160.382 38.815L156.314 37.4763C154.595 36.8942 152.818 37.8837 152.303 39.5717L147.26 56.2188C147.26 56.2188 141.071 56.3352 135.914 54.9964C129.152 53.2502 122.161 54.8218 122.161 54.8218C122.161 54.8218 125.026 53.6577 125.026 52.0279C125.026 50.3981 115.973 49.9907 115.973 49.9907V54.9382Z" fill="#4D60A4"/>
<path d="M120.556 57.6756C120.556 57.6756 120.155 55.9294 122.161 54.707" stroke="#3C4A77" stroke-miterlimit="10" stroke-linecap="round" stroke-linejoin="round"/>
<path d="M147.203 56.1602C147.203 56.1602 152.246 56.7422 153.793 61.6898" stroke="#3C4A77" stroke-miterlimit="10" stroke-linecap="round" stroke-linejoin="round"/>
<path d="M130.582 85.5547C130.582 85.5547 135.739 90.0366 137.057 94.2857" stroke="#3C4A77" stroke-width="3" stroke-miterlimit="10"/>
<path d="M119.188 42.6579C119.188 42.6579 120.505 40.9117 121.48 41.4938C122.454 42.0759 121.652 45.219 119.99 45.2772L119.188 42.6579Z" fill="#AA3F37"/>
<path d="M108.242 45.2227L107.039 53.8954C107.039 53.8954 108.357 59.0758 114.546 60.0653C114.546 60.0653 116.609 60.2981 116.781 55.6998C116.781 55.6998 115.921 48.2494 116.208 46.2122L108.242 45.2227Z" fill="#E6817D"/>
<path d="M116.667 55.1153C116.495 53.7183 116.151 50.226 116.094 47.9559L108.301 47.1992C108.301 53.3109 114.375 55.1153 116.667 55.1153Z" fill="#AA3F37"/>
<path d="M120.391 44.228C119.933 40.3281 122.11 34.1582 114.833 33.0523C114.833 33.0523 108.816 32.0046 107.842 36.7193C107.612 37.9417 107.383 39.6296 107.383 41.434C106.81 40.9684 106.065 40.7356 105.206 41.2594C103.544 42.3071 105.55 45.9742 107.842 45.6249C108.529 48.5352 110.019 51.1545 113.113 51.9112C119.531 53.6574 120.849 48.1278 120.391 44.228Z" fill="#E6817D"/>
<path d="M114.431 42.6555C114.779 42.6555 115.061 42.3689 115.061 42.0153C115.061 41.6617 114.779 41.375 114.431 41.375C114.083 41.375 113.801 41.6617 113.801 42.0153C113.801 42.3689 114.083 42.6555 114.431 42.6555Z" fill="#233332"/>
<path d="M113.34 40.2704C113.684 39.9212 114.658 39.7466 115.288 40.2122" stroke="#233332" stroke-miterlimit="10" stroke-linecap="round" stroke-linejoin="round"/>
<path d="M118.841 42.8899C119.189 42.8899 119.472 42.6033 119.472 42.2496C119.472 41.896 119.189 41.6094 118.841 41.6094C118.493 41.6094 118.211 41.896 118.211 42.2496C118.211 42.6033 118.493 42.8899 118.841 42.8899Z" fill="#233332"/>
<path d="M119.815 40.6171C119.529 40.2678 118.498 40.035 117.867 40.4425" stroke="#233332" stroke-miterlimit="10" stroke-linecap="round" stroke-linejoin="round"/>
<path d="M117.064 41.6094C116.663 42.2496 117.465 43.8794 117.694 44.5197C117.866 44.9853 118.095 45.742 117.866 46.2077C117.522 46.848 117.007 46.2077 116.777 45.8002" stroke="#D85145" stroke-miterlimit="10" stroke-linecap="round" stroke-linejoin="round"/>
<path d="M117.637 47.3739C116.548 47.5485 115.574 47.2575 114.543 46.9083C113.97 46.6754 113.454 46.5008 113.11 46.0352C112.938 46.5008 113.11 47.3739 113.282 47.8396C113.626 48.7709 114.486 49.4111 115.46 49.3529C116.377 49.2947 117.408 48.538 117.58 47.6067C117.58 47.5485 117.58 47.5485 117.637 47.3739Z" fill="#233332"/>
<path d="M116.493 48.0142C116.608 47.8978 116.608 47.5485 116.665 47.4321C115.92 47.3739 115.232 47.1993 114.545 46.9083C113.972 46.6754 113.456 46.5008 113.112 46.0352C113.055 46.268 112.998 46.6172 113.055 46.9665C113.857 47.5485 114.774 47.956 115.748 48.1306C115.977 48.1306 116.321 48.247 116.493 48.0142Z" fill="#F9F9F9"/>
<path d="M118.501 32.0658C117.756 31.4837 116.781 31.3673 115.865 31.0763C115.234 30.9017 114.489 30.6688 113.802 30.7852C113.229 30.9017 112.598 31.0763 112.025 31.1345C112.312 31.1927 112.656 31.3091 112.942 31.4255C111.624 31.5419 110.478 31.5419 109.389 32.5314C108.874 32.9971 108.415 33.8702 107.785 34.103C108.014 34.3358 108.415 34.5687 108.702 34.8597C108.702 34.8597 108.702 34.8597 108.759 34.8597C108.358 35.3835 108.071 35.9656 107.9 36.7805C107.67 38.0028 107.441 39.6908 107.441 41.4952C107.384 41.4952 108.014 41.7863 108.473 42.6594C108.759 43.125 109.046 43.7071 109.389 44.1145C109.389 42.7758 109.103 41.4952 109.676 40.2147C109.962 39.5162 110.364 38.8177 110.421 38.0028C110.421 37.1879 110.249 36.3731 110.364 35.5582C110.421 35.2089 110.478 34.9179 110.593 34.6269C110.822 34.6269 111.051 34.6851 111.223 34.7433C112.083 34.9179 112.828 35.3836 113.573 35.791C114.833 36.4313 116.266 36.7805 117.698 36.8387C118.443 36.8387 119.532 36.7223 119.761 35.9074C120.048 34.5687 119.417 32.8225 118.501 32.0658Z" fill="#233332"/>
<path d="M76.1508 12.9156C76.38 11.6933 76.6665 10.0053 76.4373 8.78294C76.3227 8.25909 76.0362 7.90985 75.807 7.5024C75.4059 6.86213 75.2913 5.98904 75.2913 5.23235C75.234 4.41746 75.2913 3.60257 75.1767 2.78768C75.1194 2.43844 75.0047 1.79817 75.1193 1.44893C75.2913 0.866869 75.807 1.09969 76.0362 1.56535C76.38 2.26382 76.0362 3.25333 76.4373 3.8354C76.5519 4.01002 76.7811 4.24284 77.0103 4.12643C77.2396 3.95181 77.0103 3.36975 77.0103 3.07871C76.953 2.72948 76.4373 -0.646498 77.7553 0.110185C78.271 0.401218 78.0991 1.85638 78.1564 2.38024C78.1564 2.84589 77.9845 4.24284 78.5575 4.47567C79.5317 4.88311 78.7294 0.401218 80.1047 0.343011C81.0788 0.284805 80.6777 1.97279 80.6777 2.49665C80.6777 2.84589 80.3339 4.35926 80.735 4.53387C81.308 4.7667 81.48 1.27431 82.4541 1.04149C83.6575 0.750456 82.7406 3.02051 82.6833 3.42795C82.5114 4.24284 82.4541 5.11594 82.3395 5.93083C82.3395 6.16366 82.1676 6.68751 82.3968 6.86213C82.8552 7.26958 83.6002 5.93083 83.8294 5.6398C84.1159 5.29056 84.517 4.59208 84.9754 4.59208C85.6058 4.59208 85.4911 5.17415 85.3192 5.58159C84.9181 6.39648 84.4024 7.09496 84.1732 7.96805C83.944 8.84115 83.6575 9.59784 82.7979 9.94707C82.3968 10.1217 81.9957 10.0053 81.6519 10.2963C81.0788 10.8202 80.735 11.8679 80.5058 12.5082C80.2766 13.2066 80.1047 13.9633 79.8182 14.6036C78.5575 14.2544 77.4115 13.7887 76.38 13.032C76.2081 13.2066 76.2081 13.2648 76.1508 12.9156Z" fill="#E6817D"/>
<path d="M78.9609 8.66455C78.9609 8.66455 79.9924 7.09298 82.2845 6.97656" stroke="#D85145" stroke-miterlimit="10" stroke-linecap="round" stroke-linejoin="round"/>
<path d="M76.2656 4.94141L81.6521 5.17423" stroke="#D85145" stroke-miterlimit="10" stroke-linecap="round" stroke-linejoin="round"/>
<path d="M74.375 15.7694V9.89051C74.375 9.89051 76.5525 8.43535 82.3974 11.2293L81.0221 18.0976L74.375 15.7694Z" fill="#3C4A77"/>
<path d="M87.1515 97.7227L85.0312 102.379C85.0312 102.379 87.7818 105.755 92.5952 106.046C99.8727 106.512 104.056 107.327 104.056 107.327L106.061 100.633L87.1515 97.7227Z" fill="#3C4A77"/>
<path d="M108.984 54.4729C110.933 51.3297 108.698 47.7791 105.718 47.2553C102.108 46.615 99.9879 45.2763 99.9879 45.2763L100.504 48.7104C99.4722 48.4194 98.3262 48.1866 97.0655 47.9538C89.3296 46.7896 81.4219 39.1646 81.4219 39.1646C81.4219 39.1646 82.7398 30.0262 82.2814 24.2055C82.1095 21.5862 82.1095 19.6654 82.2241 18.3849C82.3387 16.9879 81.5365 15.6492 80.2185 15.1253L75.9781 13.4373C74.1444 12.6806 72.0242 13.903 71.7377 15.882C71.3939 17.9192 70.8781 20.2475 70.1332 21.8773C68.7579 24.8458 61.1367 38.7571 61.2513 50.282C61.2513 52.7849 62.6265 55.0549 64.7467 56.2773C67.7265 57.9071 72.368 60.3517 76.723 62.0979C86.3499 65.8813 92.7678 72.5751 92.7678 72.5751C92.7678 72.5751 91.9083 85.8462 86.3499 93.122C82.1668 98.5934 89.6735 101.504 92.6532 102.144C96.9509 103.075 106.406 105.811 108.24 99.2336C110.073 92.8891 114.084 68.326 108.984 54.4729Z" fill="#4D60A4"/>
<path d="M100.559 48.6562C100.559 48.6562 105.028 50.6353 106.518 54.3023" stroke="#3C4A77" stroke-miterlimit="10" stroke-linecap="round" stroke-linejoin="round"/>
<path d="M81.5366 39.168L80.5625 48.1318" stroke="#3C4A77" stroke-miterlimit="10" stroke-linecap="round" stroke-linejoin="round"/>
<path d="M90.9922 92.6588C90.9922 92.6588 93.9719 85.2666 97.8685 82.4727" stroke="#3C4A77" stroke-width="3" stroke-miterlimit="10"/>
<path d="M125.316 74.7921C125.316 74.7921 126.462 70.543 126.405 70.0192C126.291 69.0879 124.743 67.9237 124.113 67.2253C123.425 66.4104 122.967 65.4209 122.222 64.6642C121.936 64.3149 119.758 62.5105 120.618 62.0449C121.42 61.6374 122.852 63.8493 123.712 64.0821C122.967 63.3254 121.534 61.4046 121.649 60.0659C121.706 59.7166 122.107 59.6002 122.337 59.833C122.852 60.4151 123.597 61.3464 123.884 61.8703C123.597 61.3464 121.936 58.5525 123.024 58.2615C123.769 58.0869 125.259 62.2195 126.462 62.4523C126.634 61.2882 125.546 58.5525 126.291 58.0869C127.379 57.3884 127.494 59.8913 127.608 60.4733C127.895 61.7539 128.525 63.3836 129.557 64.1985C129.328 62.4523 130.703 60.1823 131.276 61.4046C131.448 61.6957 130.989 62.7434 131.047 63.1508C131.104 64.0821 131.505 64.9552 131.505 65.8865C131.562 67.5745 130.703 68.5058 130.187 69.9028C129.557 71.5907 129.442 75.1995 129.442 75.1995L125.316 74.7921Z" fill="#E78C60"/>
<path d="M128.525 67.8662C127.837 66.9349 128.983 64.9559 129.27 64.1992" stroke="#D85145" stroke-miterlimit="10" stroke-linecap="round" stroke-linejoin="round"/>
<path d="M124.398 65.4783C124.742 64.7798 125.373 64.3142 125.946 63.7903C126.461 63.3247 127.493 62.277 128.066 62.2188" stroke="#D85145" stroke-miterlimit="10" stroke-linecap="round" stroke-linejoin="round"/>
<path d="M188.18 54.3589C188.18 54.126 187.951 53.9514 187.893 53.7768C187.607 53.3112 187.549 52.7873 187.492 52.2052C187.435 51.565 187.435 50.9247 187.492 50.3426C187.492 50.2262 187.55 49.6441 187.721 49.5859C188.123 49.3531 188.237 51.2739 188.237 51.5068C188.123 51.0993 188.18 50.459 188.237 50.0516C188.352 49.5859 188.524 49.7024 188.581 50.0516C188.753 50.8665 188.867 51.6814 189.039 52.4963C188.925 52.2052 188.925 51.7978 188.982 51.5068C188.982 51.2739 188.925 50.7501 189.211 50.5755C189.555 50.3426 189.612 51.0411 189.612 51.2157C189.784 52.0888 190.071 52.9619 190.587 53.7186C190.873 54.126 191.217 54.4171 191.389 54.8827C191.503 55.3484 191.561 55.814 191.618 56.2797C191.331 56.2215 190.988 55.9887 190.644 55.9304C190.071 55.7558 189.555 55.5812 189.039 55.232C188.81 55.0573 188.581 54.9409 188.409 54.7081C188.352 54.5917 188.237 54.4171 188.18 54.3589Z" fill="#D85145"/>
<path d="M192.767 61.5189C192.48 60.2965 190.99 58.2593 189.844 57.328C187.896 55.6982 186.349 55.2326 186.062 52.3805C186.005 51.8566 186.062 51.2745 186.005 50.6925C185.948 50.2268 185.661 49.7612 185.718 49.2373C186.807 48.9463 187.094 51.5656 187.552 52.2059C188.125 53.0789 189.271 54.2431 190.188 54.7669C190.245 54.8251 190.245 54.8251 190.188 54.7669C189.615 54.1267 188.698 52.3223 189.615 51.6238C190.131 52.4969 190.073 52.8461 191.162 53.3118C191.793 53.6028 192.709 53.661 193.741 54.6505C194.486 55.4072 194.486 56.9788 195.002 57.9101C195.575 58.9578 196.262 60.3548 196.835 61.4025H192.767V61.5189Z" fill="#E78C60"/>
<path d="M119.302 206.742L115.119 222.458C115.119 222.458 109.504 224.029 104.69 225.659C102.971 226.241 103.372 228.861 105.206 228.861H121.881C122.626 228.861 123.314 228.395 123.543 227.638L130.419 206.742H119.302Z" fill="#E78C60"/>
<path d="M118.273 210.526L128.817 211.457L130.364 206.742H119.305L118.273 210.526Z" fill="#D85145"/>
<path d="M111.624 223.449C109.618 224.031 107.04 224.846 104.69 225.661C102.971 226.243 103.372 228.862 105.206 228.862H121.881C122.626 228.862 123.314 228.397 123.543 227.64L124.517 224.73C115.807 227.524 112.541 224.613 111.624 223.449Z" fill="#233332"/>
<path d="M165.256 206.742L161.99 222.458C161.99 222.458 167.606 224.029 172.419 225.659C174.138 226.241 173.737 228.861 171.903 228.861H155.228C154.483 228.861 153.796 228.395 153.566 227.638L154.139 206.742H165.256Z" fill="#E78C60"/>
<path d="M154.082 210.235L164.568 209.944L165.256 206.742H154.139L154.082 210.235Z" fill="#D85145"/>
<path d="M165.485 223.445C167.491 224.027 170.07 224.842 172.419 225.657C174.138 226.239 173.737 228.859 171.903 228.859H155.228C154.483 228.859 153.796 228.393 153.566 227.636L153.681 224.26C162.334 227.054 164.569 224.609 165.485 223.445Z" fill="#233332"/>
<path d="M136.609 127.35L179.472 127.408C179.472 127.408 178.383 116.756 177.81 110.47C177.237 104.183 177.008 99.4688 177.008 99.4688L142.97 99.9344C142.97 99.9344 145.491 113.438 136.609 127.35Z" fill="#769494"/>
<path d="M171.791 112.22L164.112 111.58L146.692 110.066C146.692 110.066 141.936 114.839 136.607 131.312C131.278 147.784 121.708 186.55 116.035 209.599H133.742L156.835 147.144L149.042 208.144H167.264C167.264 208.144 171.905 159.833 175.745 141.789C178.954 126.655 171.791 112.22 171.791 112.22Z" fill="#3C4A77"/>
<path d="M156.836 147.146C156.836 147.146 166.807 130.906 165.89 113.852" stroke="#233332" stroke-miterlimit="10" stroke-linecap="round" stroke-linejoin="round"/>
<path d="M165.656 121.241C165.656 121.241 169.094 120.135 168.636 113.383" stroke="#233332" stroke-miterlimit="10" stroke-linecap="round" stroke-linejoin="round"/>
<path d="M117.586 203.254L135.808 203.952" stroke="#233332" stroke-miterlimit="10" stroke-linecap="round" stroke-linejoin="round"/>
<path d="M149.73 202.559L167.494 202.094" stroke="#233332" stroke-miterlimit="10" stroke-linecap="round" stroke-linejoin="round"/>
<path d="M146.637 110.005C146.637 110.005 164.343 116.815 171.735 112.217C171.735 112.217 177.695 92.776 176.148 88.6433C174.257 83.5793 172.366 77.4095 166.406 76.5364C166.406 76.5364 153.685 74.2081 150.533 77.4095C147.382 80.6108 145.204 85.8494 147.783 95.337C150.361 104.825 146.637 110.005 146.637 110.005Z" fill="#D85145"/>
<path d="M165.254 76.3643C165.254 76.3643 174.422 88.6459 173.849 102.732C173.276 116.818 170.812 135.327 170.812 135.327C170.812 135.327 176.829 134.163 179.58 128.75C179.58 128.75 176.141 97.2022 177.001 92.5457C177.001 92.5457 204.965 97.5515 208.517 93.8262C212.128 90.101 212.128 82.767 208.059 76.6553C203.991 70.5437 197.745 58.3203 197.745 58.3203L191.155 59.2516L196.255 79.4492C196.255 79.4492 184.164 78.8672 178.72 77.7031C173.276 76.5389 171.786 74.9092 165.254 76.3643Z" fill="#9BB9B9"/>
<path d="M197.171 83.6401L196.254 79.4492C196.254 79.4492 200.437 81.37 201.87 84.2804" stroke="#769494" stroke-miterlimit="10" stroke-linecap="round" stroke-linejoin="round"/>
<path d="M177.004 92.6047L177.692 85.4453" stroke="#769494" stroke-miterlimit="10" stroke-linecap="round" stroke-linejoin="round"/>
<path d="M158.84 67.2227L157.293 77.5834C157.293 77.5834 160.387 82.8802 162.909 82.9966C164.055 83.0548 164.972 80.3773 165.487 78.5147L165.831 68.5614L158.84 67.2227Z" fill="#E78C60"/>
<path d="M159.069 69.7852C159.069 69.7852 157.809 77.4684 165.487 78.4579L165.716 70.7165L159.069 69.7852Z" fill="#D85145"/>
<path d="M166.404 57.7941C163.482 57.3285 160.502 60.297 159.413 64.6625C159.299 64.3714 159.012 63.2073 157.58 63.673C156.548 63.964 156.262 67.6892 158.955 68.0966C158.955 72.1129 160.731 75.4307 163.425 75.8381C166.576 76.362 169.843 72.7532 170.645 67.7474C171.504 62.7999 169.556 58.318 166.404 57.7941Z" fill="#E78C60"/>
<path d="M164.341 67.2829C164.594 67.2829 164.8 67.0744 164.8 66.8172C164.8 66.56 164.594 66.3516 164.341 66.3516C164.088 66.3516 163.883 66.56 163.883 66.8172C163.883 67.0744 164.088 67.2829 164.341 67.2829Z" fill="#233332"/>
<path d="M168.408 68.5016C168.661 68.5016 168.866 68.2931 168.866 68.036C168.866 67.7788 168.661 67.5703 168.408 67.5703C168.154 67.5703 167.949 67.7788 167.949 68.036C167.949 68.2931 168.154 68.5016 168.408 68.5016Z" fill="#233332"/>
<path d="M163.367 64.8359C163.367 64.8359 164.685 63.7882 165.774 65.0105" stroke="#233332" stroke-miterlimit="10" stroke-linecap="round" stroke-linejoin="round"/>
<path d="M168.176 65.7673C168.176 65.7673 169.494 65.3599 169.838 66.8151" stroke="#233332" stroke-miterlimit="10" stroke-linecap="round" stroke-linejoin="round"/>
<path d="M167.21 65.8867C166.522 66.9344 166.923 68.0986 166.752 69.2627C166.694 69.6119 166.465 70.3104 166.064 70.3104C165.892 70.3104 165.72 70.194 165.606 70.0776C165.548 70.0194 165.434 69.7866 165.434 69.7866" stroke="#D85145" stroke-miterlimit="10" stroke-linecap="round" stroke-linejoin="round"/>
<path d="M163.367 71.0039C163.654 71.2949 163.94 71.5278 164.284 71.7024C164.8 71.9934 165.315 72.168 165.946 72.2262" stroke="#D85145" stroke-miterlimit="10" stroke-linecap="round" stroke-linejoin="round"/>
<path d="M158.27 63.8469C158.27 63.8469 158.327 64.6036 158.613 65.1856C158.9 65.7677 159.473 66.4662 159.473 66.4662L161.135 61.8096C161.536 60.9948 162.223 60.4127 163.026 60.1799C163.885 59.8888 165.031 59.656 166.235 59.7142C166.98 59.7142 167.667 60.0053 168.24 60.4709C168.985 61.053 170.017 62.0425 170.647 63.323C170.647 63.323 171.048 65.8841 170.532 68.5616C170.532 68.5616 171.506 68.2124 171.678 66.8736C171.85 65.5349 171.85 62.6827 171.449 61.4022C171.163 60.3545 170.59 57.7352 166.005 57.1531C164.63 56.9785 163.427 57.2113 162.453 57.5606C161.135 58.0262 160.103 59.0739 159.645 60.4127L158.27 63.8469Z" fill="#233332"/>
<path d="M157.584 75.8991C157.584 75.8991 150.708 75.4334 146.697 78.4601C142.685 81.4869 129.105 90.1596 129.105 90.1596L130.881 71.8828H124.349C124.349 71.8828 112.086 91.673 113.232 110.59C113.232 110.59 116.097 113.384 120.108 110.59C124.119 107.796 142.857 97.9011 142.857 97.9011C142.857 97.9011 143.259 105.352 142.857 108.844C142.456 112.336 136.554 127.354 136.554 127.354C136.554 127.354 142.284 136.085 153.745 138.005C153.745 138.005 154.834 112.278 158.215 103.838C162.398 93.652 157.584 75.8991 157.584 75.8991Z" fill="#9BB9B9"/>
<path d="M157.358 92.6043L157.128 95.1654C157.128 95.1654 154.321 95.1072 153.175 96.1549C152.716 96.5624 152.258 96.9116 151.857 97.1444C151.284 97.4937 150.653 97.4355 150.138 97.028C149.106 96.1549 148.017 95.4565 146.814 94.9326L145.84 94.5252L146.069 91.8477L157.358 92.6043Z" stroke="#769494" stroke-miterlimit="10" stroke-linecap="round" stroke-linejoin="round"/>
<path d="M150.999 95.2813C151.315 95.2813 151.572 95.0207 151.572 94.6992C151.572 94.3778 151.315 94.1172 150.999 94.1172C150.682 94.1172 150.426 94.3778 150.426 94.6992C150.426 95.0207 150.682 95.2813 150.999 95.2813Z" fill="#769494"/>
<path d="M146.011 94.582L145.667 100.752C145.61 102.032 146.355 103.255 147.558 103.779L149.793 104.652C150.538 104.943 151.397 105.001 152.2 104.71L154.205 104.011C155.294 103.604 156.039 102.673 156.211 101.509L156.898 95.1641" stroke="#769494" stroke-miterlimit="10" stroke-linecap="round" stroke-linejoin="round"/>
<path d="M129.106 90.1602C129.106 90.1602 129.163 93.3033 126.699 97.7852" stroke="#769494" stroke-miterlimit="10" stroke-linecap="round" stroke-linejoin="round"/>
<path d="M157.068 66.582C156.781 66.6402 156.667 68.2118 156.438 68.6193C155.406 70.4237 153.744 71.8788 152.312 73.3922C149.905 75.8951 146.983 78.3979 145.951 81.8321C144.232 87.4199 147.269 92.0182 151.395 95.4524C152.942 96.733 155.406 98.3628 155.464 100.691C156.266 99.1194 157.526 97.6061 158.214 95.8599C159.016 93.9391 158.959 91.9018 159.131 89.8646C159.475 90.2139 159.819 90.7377 160.105 91.0869C160.277 89.399 160.678 87.7692 160.506 86.023C160.334 84.335 159.761 82.7634 159.074 81.2501C158.558 80.0859 158.042 78.7472 157.756 77.4666C157.526 76.3607 157.698 75.022 157.87 73.916C158.214 71.937 158.558 69.8998 158.902 67.9208C158.271 67.8044 157.469 67.5133 157.068 66.582Z" fill="#233332"/>
<path d="M246.908 211.172L245.246 228.925L261.921 229.973C263.067 230.031 263.583 228.576 262.666 227.877L254.816 222.115L257.795 210.008L246.908 211.172Z" fill="#AA3F37"/>
<path d="M257.854 209.949L246.909 211.172L246.68 214.082L256.65 214.722L257.854 209.949Z" fill="#852B22"/>
<path d="M258.884 225.086C257.681 228.113 248.799 225.552 245.647 224.504L245.246 228.928L261.921 229.975C263.067 230.033 263.583 228.578 262.666 227.88L258.884 225.086Z" fill="#233332"/>
<path d="M258.029 114.254L263.817 113.613C263.817 113.613 275.851 147.257 258.66 212.04H244.047C244.047 212.04 246.913 201.039 245.079 190.329C243.245 179.619 248.574 165.126 248.574 165.126C248.574 165.126 230.008 132.938 240.323 114.312H258.029V114.254Z" fill="#007F7A"/>
<path d="M239.463 195.391L230.18 214.482L246.626 222.049C247.657 222.515 248.688 221.351 248.058 220.361L242.271 211.397L249.777 200.455L239.463 195.391Z" fill="#AA3F37"/>
<path d="M236.426 201.619L247.371 203.947L249.777 200.455L239.463 195.391L236.426 201.619Z" fill="#852B22"/>
<path d="M245.193 215.939C242.844 218.5 234.993 212.505 232.243 210.293L230.18 214.484L246.626 222.051C247.657 222.516 248.688 221.352 248.058 220.363L245.193 215.939Z" fill="#233332"/>
<path d="M238.436 114.254C238.436 114.254 227.319 130.377 233.45 141.727C239.639 153.077 254.079 164.719 254.079 164.719C254.079 164.719 243.192 168.502 241.358 182.471C239.524 196.441 236.373 198.536 236.373 198.536L250.24 202.494C250.24 202.494 277.287 173.973 276.943 165.533C276.599 157.093 258.09 114.195 258.09 114.195H238.436V114.254Z" fill="#00918C"/>
<path d="M238.379 195.219L254.252 198.129" stroke="#007F7A" stroke-miterlimit="10" stroke-linecap="round" stroke-linejoin="round"/>
<path d="M245.08 196.441L262.615 164.718C262.615 164.718 233.62 140.796 242.788 121.82" stroke="#007F7A" stroke-miterlimit="10" stroke-linecap="round" stroke-linejoin="round"/>
<path d="M241.414 134.101C241.414 134.101 247.775 132.995 247.545 122.285" stroke="#007F7A" stroke-miterlimit="10" stroke-linecap="round" stroke-linejoin="round"/>
<path d="M237.059 54.9998C231.558 55.5236 233.506 59.7145 231.615 61.3443C230.756 62.101 229.781 62.8576 229.667 64.0218C229.495 65.2441 230.125 66.35 229.208 67.3977C228.464 68.2708 227.489 68.4455 227.146 69.6678C226.802 70.8901 227.489 71.9379 227.031 73.102C226.573 74.2079 225.77 74.79 225.598 76.0705C225.426 77.1764 224.968 79.5047 225.713 80.436C227.375 82.415 230.412 83.6373 233.506 83.2299C236.715 82.8225 241.93 80.8434 245.139 81.0181C250.296 81.2509 256.37 83.2881 260.209 78.1077C260.84 77.2928 261.183 76.478 261.183 75.4884C261.183 74.2079 260.324 73.5676 260.152 72.4617C259.923 71.0648 261.298 69.6678 261.183 68.1544C261.126 66.5247 259.923 65.3605 258.376 64.7203C257.401 64.2546 255.568 64.0218 255.052 62.9741C254.422 61.6935 255.51 60.3548 254.422 59.1324C253.333 57.9683 251.843 58.3757 250.468 57.9101C249.035 57.4444 249.207 56.746 248.806 55.6983C248.176 54.0685 246.514 54.4759 245.024 53.7192C243.477 52.9625 240.554 52.1477 239.58 53.7774C238.835 55.058 237.689 54.8834 237.059 54.9998Z" fill="#233332"/>
<path d="M267.145 52.6125C265.54 50.8663 263.707 49.1201 263.076 49.0037C261.816 48.8873 259.982 49.1201 258.836 48.5962C258.779 47.6649 258.951 46.6754 258.893 45.6859C258.893 44.871 258.55 44.1143 258.492 43.3576C258.435 42.3099 259.008 42.892 259.638 42.4845C260.326 42.0189 260.727 41.2622 261.415 40.7966C262.733 39.807 264.509 40.8548 265.598 41.8443C266.343 42.4845 265.712 43.1248 266.056 43.9397C266.343 44.5218 267.145 44.4054 267.489 45.1038C267.718 45.5113 267.546 45.9187 267.661 46.3262C267.718 46.6172 269.38 48.3052 270.927 50.1678L267.145 52.6125Z" fill="#AA3F37"/>
<path d="M259.41 44.9892C260.556 44.7564 261.473 43.7669 262.447 43.1266C263.364 42.5445 263.364 43.7086 263.135 44.4071C262.963 44.8728 262.619 45.3384 262.161 45.5713C263.364 45.2802 265.484 45.513 265.37 47.201" stroke="#852B22" stroke-miterlimit="10" stroke-linecap="round" stroke-linejoin="round"/>
<path d="M263.59 45.2798C264.564 44.5231 265.767 43.8829 266.34 42.7188" stroke="#852B22" stroke-miterlimit="10" stroke-linecap="round" stroke-linejoin="round"/>
<path d="M282.615 54.7699C278.604 53.1401 276.14 51.685 274.822 50.6955C274.135 50.1716 273.275 49.997 272.415 50.1716L270.868 47.7852L264.794 51.976L266.857 53.7222C266.513 54.4207 266.456 55.2938 266.742 56.0505L267.029 56.8072C267.946 65.4799 273.39 69.9036 273.39 69.9036L248.635 78.1107L242.389 78.2271C242.389 78.2271 231.902 78.8092 227.433 85.2701C222.906 91.731 216.03 98.1337 216.03 98.1337C216.03 98.1337 210.987 93.7682 206.288 94.2921C205.715 94.3503 205.142 94.5831 204.569 94.9324C202.735 94.7578 200.787 95.7473 199.641 97.6099C198.151 99.9963 198.552 102.965 200.443 104.478C200.5 106.632 201.131 108.786 202.563 110.532C207.148 116.12 220.614 121.649 226.802 118.739C232.991 115.828 236.659 106.806 236.659 106.806C236.659 106.806 238.779 112.336 236.659 116.003C234.538 119.67 245.254 122.988 254.422 122.289C263.591 121.591 266.628 117.516 264.45 113.675C259.923 105.759 269.321 97.086 267.774 90.4505C275.796 87.2491 287.83 81.8359 291.726 76.9466C297.743 69.3797 290.638 57.9713 282.615 54.7699Z" fill="#FADB81"/>
<path d="M267.89 91.2069C267.775 90.2174 267.489 89.286 266.916 88.413C264.796 85.2116 261.587 83.2908 257.289 80.6133" stroke="#E6817D" stroke-miterlimit="10" stroke-linecap="round" stroke-linejoin="round"/>
<path d="M236.603 106.748C236.603 106.748 237.52 97.6674 235.629 94.6406" stroke="#E6817D" stroke-miterlimit="10" stroke-linecap="round" stroke-linejoin="round"/>
<path d="M215.973 98.1328C215.973 98.1328 221.76 100.636 223.307 105.991" stroke="#E6817D" stroke-miterlimit="10" stroke-linecap="round" stroke-linejoin="round"/>
<path d="M273.391 69.9648C273.391 69.9648 278.892 70.6051 280.496 72.5841" stroke="#E6817D" stroke-miterlimit="10" stroke-linecap="round" stroke-linejoin="round"/>
<path d="M201.878 102.847C200.33 101.799 195.689 99.1214 195.689 99.1214C194.657 98.8886 193.225 98.7721 192.251 98.2483C190.875 97.4334 191.735 95.1633 192.308 94.0574C192.996 92.7769 192.48 92.3694 192.308 91.0889C192.079 89.4591 193.053 89.2845 194.314 89.5755C195.288 89.8084 195.059 89.4009 195.861 88.9935C196.377 88.7606 196.606 88.9935 197.121 89.2845C197.637 89.6337 198.096 90.0994 198.611 90.5068C199.242 90.9725 199.929 91.2053 200.216 91.9038C200.617 92.8351 200.445 93.941 200.732 94.9305C201.247 96.6767 204.743 99.0632 204.743 99.0632C205.66 101.682 203.539 103.487 201.878 102.847Z" fill="#AA3F37"/>
<path d="M195.06 89.4609C195.06 89.6356 194.888 89.9848 194.83 90.2176C194.716 90.5669 194.659 90.9161 194.544 91.2653C194.372 91.7892 194.2 92.4295 194.372 92.9533C194.544 93.3608 195.232 93.8846 195.575 93.3026C195.805 92.8369 195.862 92.2548 196.148 91.7892C195.976 92.4877 195.862 93.419 196.148 94.1175C196.492 94.9905 197.524 95.689 198.44 95.7472" stroke="#852B22" stroke-miterlimit="10" stroke-linecap="round" stroke-linejoin="round"/>
<path d="M196.315 94.4062C196.43 94.5227 196.373 94.8137 196.373 94.9883C196.373 95.3958 196.373 95.8032 196.315 96.1524C196.201 96.9091 195.8 98.0732 194.883 98.0732" stroke="#852B22" stroke-miterlimit="10" stroke-linecap="round" stroke-linejoin="round"/>
<path d="M247.538 68.2712C249.143 67.4563 251.206 67.8638 252.352 69.3772C253.67 71.1234 253.383 73.6262 251.664 74.965C249.945 76.3037 247.481 76.0127 246.163 74.2665C244.96 72.6949 245.132 70.5413 246.392 69.1443" stroke="#FADB81" stroke-miterlimit="10" stroke-linecap="round" stroke-linejoin="round"/>
<path d="M248.515 79.5029L246.968 70.3063L240.321 69.957L241.238 79.2119C240.321 79.3865 239.633 79.9685 239.576 80.4924C239.118 82.7042 241.983 84.043 244.79 84.6833C247.598 85.3235 250.177 84.4504 250.521 82.8207C250.807 81.5983 249.948 80.376 248.515 79.5029Z" fill="#AA3F37"/>
<path d="M248.572 79.9721L246.967 70.2516L240.32 69.9023C240.32 69.9606 243.071 77.1199 248.572 79.9721Z" fill="#852B22"/>
<path d="M249.318 66.2907C249.49 64.7192 249.146 63.0894 248.344 61.8088C248.229 61.7506 248.172 61.7506 248.058 61.7506C247.485 61.7506 247.083 61.7506 246.453 61.576C245.765 61.4014 245.536 61.2268 245.021 61.6924C244.39 62.2163 243.359 61.9834 242.557 61.7506C242.041 61.6342 241.124 61.0521 240.666 61.5178C240.436 61.6924 240.436 62.0999 240.494 62.3909C240.494 62.6819 240.608 62.973 240.436 63.264C240.322 63.4968 240.035 63.6714 239.978 63.9043C239.921 64.3699 240.322 64.8356 240.322 65.3012C240.322 65.5922 240.092 65.8251 240.035 66.1161C239.863 67.0474 240.837 67.6877 240.952 68.5026C241.067 69.3175 239.863 68.7354 239.519 68.3862C239.348 68.1533 239.176 67.8623 238.946 67.7459C238.66 67.6295 238.316 67.6877 238.03 67.6295C237.686 67.5131 237.342 67.0474 236.998 66.931C236.941 66.9892 236.941 67.0474 236.884 67.0474C235.68 68.9682 237.628 70.8308 240.264 70.7144C241.296 73.1591 243.645 77.2917 247.542 76.0694C252.47 74.6143 248.974 70.1324 249.318 66.2907Z" fill="#AA3F37"/>
<path d="M243.759 67.3415C244.012 67.3415 244.218 67.133 244.218 66.8758C244.218 66.6186 244.012 66.4102 243.759 66.4102C243.506 66.4102 243.301 66.6186 243.301 66.8758C243.301 67.133 243.506 67.3415 243.759 67.3415Z" fill="#233332"/>
<path d="M247.599 66.7555C247.852 66.7555 248.057 66.547 248.057 66.2899C248.057 66.0327 247.852 65.8242 247.599 65.8242C247.346 65.8242 247.141 66.0327 247.141 66.2899C247.141 66.547 247.346 66.7555 247.599 66.7555Z" fill="#233332"/>
<path d="M242.039 64.8346C242.039 64.8346 243.185 63.9615 244.618 64.6018" stroke="#233332" stroke-miterlimit="10" stroke-linecap="round" stroke-linejoin="round"/>
<path d="M246.914 64.3695C246.914 64.3695 247.946 63.38 249.263 64.3695" stroke="#233332" stroke-miterlimit="10" stroke-linecap="round" stroke-linejoin="round"/>
<path d="M246.283 64.8359C246.111 66.0583 246.913 66.9314 247.199 68.0955C247.314 68.4447 247.371 69.1432 246.97 69.3178C246.798 69.376 246.569 69.376 246.454 69.3178C246.34 69.2596 246.168 69.085 246.168 69.1432" stroke="#852B22" stroke-miterlimit="10" stroke-linecap="round" stroke-linejoin="round"/>
<path d="M247.425 71.4712C246.852 71.5876 246.279 71.5876 245.706 71.413C245.362 71.3548 244.961 71.1802 244.617 70.9473C244.904 70.8891 245.076 70.7145 245.305 70.5981C245.591 70.4235 245.706 70.4235 245.992 70.5399C246.107 70.5981 246.279 70.7145 246.336 70.7145C246.508 70.7145 246.451 70.6563 246.623 70.5399C246.852 70.4235 247.081 70.3653 247.31 70.5399C247.54 70.7727 247.54 71.1802 247.425 71.4712Z" stroke="#D85145" stroke-miterlimit="10" stroke-linecap="round" stroke-linejoin="round"/>
<path d="M239.632 70.1914C241.409 70.5406 242.727 72.1704 242.727 74.0912C242.727 76.3031 240.95 78.0493 238.83 78.0493C236.653 78.0493 234.934 76.2449 234.934 74.0912C234.934 72.1122 236.366 70.4824 238.2 70.1914" stroke="#FADB81" stroke-miterlimit="10" stroke-linecap="round" stroke-linejoin="round"/>
<path d="M274.763 47.313C275.164 44.9266 275.794 39.0477 276.31 38.5821C277.284 37.7672 278.946 36.9523 279.633 35.8464C279.175 35.0315 278.545 34.2748 278.029 33.4599C277.628 32.7614 277.513 31.9465 277.112 31.3063C276.596 30.4332 276.424 31.1898 275.679 31.248C274.877 31.248 274.132 30.8406 273.273 30.7824C271.668 30.666 270.694 32.5868 270.35 33.9837C270.121 34.9151 270.981 35.0897 271.095 35.9628C271.21 36.603 270.465 37.0105 270.522 37.7672C270.579 38.2328 270.866 38.4656 271.038 38.9313C271.153 39.2223 270.637 44.9848 270.293 47.3712L274.763 47.313Z" fill="#E6817D"/>
<path d="M278.89 35.8486C277.744 35.6157 276.827 34.6262 275.853 33.986C274.936 33.4039 274.936 34.568 275.165 35.2665C275.337 35.7322 275.681 36.1978 276.139 36.4306C274.936 36.1396 272.816 36.3724 272.93 38.0604" stroke="#D85145" stroke-miterlimit="10" stroke-linecap="round" stroke-linejoin="round"/>
<path d="M274.704 36.1978C273.73 35.4411 272.526 34.8008 271.953 33.6367" stroke="#D85145" stroke-miterlimit="10" stroke-linecap="round" stroke-linejoin="round"/>
<path d="M309.607 41.6671C309.836 39.9791 310.696 32.9362 310.696 32.9362C311.154 32.0631 311.899 31.0736 312.071 30.084C312.3 28.6871 310.295 27.9304 309.263 27.6976C308.003 27.4065 308.06 26.8827 307.258 25.9514C306.341 24.8455 305.596 25.4275 305.08 26.417C304.679 27.1737 304.507 26.8245 303.82 27.1737C303.361 27.4065 303.361 27.6976 303.304 28.2214C303.247 28.8035 303.304 29.3856 303.247 29.9094C303.189 30.6079 302.96 31.19 303.247 31.8302C303.648 32.6451 304.507 33.169 304.966 33.9257C305.825 35.2644 305.367 41.4343 305.367 41.4343C306.627 43.5879 309.034 43.2387 309.607 41.6671Z" fill="#E6817D"/>
<path d="M304.676 26.9414C304.79 27.0578 305.134 27.116 305.306 27.2324C305.593 27.3489 305.879 27.5235 306.166 27.6399C306.567 27.8145 307.197 28.0473 307.369 28.513C307.541 28.8622 307.484 29.6771 306.911 29.5025C306.452 29.3861 306.051 29.095 305.535 28.9786C306.108 29.2697 306.796 29.7353 307.082 30.3756C307.484 31.1323 307.369 32.18 306.853 32.8785" stroke="#D85145" stroke-width="0.8906" stroke-miterlimit="10" stroke-linecap="round" stroke-linejoin="round"/>
<path d="M307.203 30.668C307.203 30.7844 307.432 30.959 307.547 31.0172C307.833 31.25 308.063 31.4829 308.349 31.6575C308.922 32.0649 309.896 32.4142 310.469 31.7739" stroke="#D85145" stroke-width="0.8906" stroke-miterlimit="10" stroke-linecap="round" stroke-linejoin="round"/>
<path d="M304.907 207.438C304.907 207.438 310.523 219.253 310.924 226.646C310.924 226.646 304.965 229.556 293.962 228.683C293.962 228.683 290.41 227.17 295.567 224.725C300.724 222.28 301.183 221.232 301.183 221.232L296.885 208.718L304.907 207.438Z" fill="#E6817D"/>
<path d="M304.905 207.438L296.883 208.776L300.092 218.031L308.859 217.391C307.083 212.094 304.905 207.438 304.905 207.438Z" fill="#AA3F37"/>
<path d="M293.962 228.684C304.965 229.557 310.924 226.647 310.924 226.647C310.867 226.006 310.809 225.366 310.695 224.668C308.403 224.959 305.824 225.25 303.589 225.483C298.719 225.948 298.088 223.445 298.088 223.445C297.401 223.795 296.598 224.26 295.567 224.726C290.41 227.229 293.962 228.684 293.962 228.684Z" fill="#4D60A4"/>
<path d="M277.343 206.566L272.185 224.028C272.185 224.028 266.226 229.907 266.971 234.273C267.601 237.94 276.254 230.431 278.89 228.045C279.405 227.579 279.749 227.055 280.036 226.415L287.886 206.566H277.343Z" fill="#E6817D"/>
<path d="M287.487 207.556L283.075 206.566H277.344L273.906 218.149H283.304L287.487 207.556Z" fill="#AA3F37"/>
<path d="M270.065 226.475C268.46 228.571 266.512 231.714 266.97 234.275C267.601 237.942 276.253 230.433 278.889 228.047C279.405 227.581 279.749 227.057 280.035 226.417L280.551 225.078C279.291 226.3 277.514 227.639 275.337 228.105C272.529 228.745 270.867 227.465 270.065 226.475Z" fill="#4D60A4"/>
<path d="M281.298 78.8619C281.183 76.7082 279.865 73.9725 280.323 71.295C280.782 68.4429 281.928 66.0565 284.392 64.5431C289.836 61.1089 293.847 63.3208 298.03 67.7444C302.156 72.0517 303.015 78.047 305.135 83.402C307.198 88.5823 311.84 92.4822 314.705 97.1969C317.742 102.261 319.347 111.923 312.528 114.542C310.751 115.241 308.746 115.066 306.912 115.357C304.219 115.823 301.812 117.045 299.233 117.918C296.196 118.966 293.388 120.479 290.237 121.294C286.283 122.284 279.75 122.517 276.541 119.374C272.072 114.95 276.943 105.055 278.948 100.515C282.042 93.5881 283.246 86.7197 281.871 79.4439C281.756 79.6186 281.699 79.735 281.298 78.8619Z" fill="#233332"/>
<path d="M282.274 117.801C282.274 117.801 271.043 128.86 270.642 139.861C269.61 167.16 296.829 202.2 295.97 216.577L311.556 215.18C311.556 215.18 307.717 185.728 296.944 165.472C296.944 165.472 310.926 140.734 305.539 119.489L282.274 117.801Z" fill="#D85145"/>
<path d="M290.412 118.441L272.648 216.694H289.209C289.209 216.694 294.997 171.118 301.243 161.049C307.489 151.037 312.245 143.412 305.598 119.547L290.412 118.441Z" fill="#D85145"/>
<path d="M279.695 177.635C279.695 177.635 283.363 125.133 286.973 118.148" stroke="#AA3F37" stroke-miterlimit="10" stroke-linecap="round" stroke-linejoin="round"/>
<path d="M291.156 202.958L293.964 186.719" stroke="#AA3F37" stroke-miterlimit="10" stroke-linecap="round" stroke-linejoin="round"/>
<path d="M297.461 122.691C297.461 122.691 302.16 134.566 308.807 139.629" stroke="#AA3F37" stroke-width="0.8908" stroke-miterlimit="10" stroke-linecap="round" stroke-linejoin="round"/>
<path d="M283.767 117.918C283.767 117.918 279.698 130.316 284.34 130.316" stroke="#AA3F37" stroke-miterlimit="10" stroke-linecap="round" stroke-linejoin="round"/>
<path d="M273.906 209.941H290.123" stroke="#AA3F37" stroke-miterlimit="10" stroke-linecap="round" stroke-linejoin="round"/>
<path d="M295.051 210.293L310.465 208.488" stroke="#AA3F37" stroke-miterlimit="10" stroke-linecap="round" stroke-linejoin="round"/>
<path d="M305.819 107.789C307.366 96.9048 313.497 90.0947 310.919 74.5535C309.085 63.5525 311.492 39.7461 311.492 39.7461H303.813C298.77 47.3711 297.739 71.3522 297.051 79.6175C296.879 82.004 294.874 83.8666 292.524 83.8666C292.524 83.8666 290.29 84.3322 288.227 85.4964C276.938 78.8026 276.193 44.2862 276.193 44.2862H268.171L267.311 59.0124C264.332 78.628 275.047 92.3065 280.204 97.6033C279.975 98.069 279.746 98.5346 279.574 99.0585C278.371 102.9 281.121 104.006 282.325 107.673C282.955 109.594 281.694 115.007 280.376 119.838C279.173 124.262 305.59 123.331 305.532 119.605C305.532 113.494 305.819 107.789 305.819 107.789Z" fill="#B0DD92"/>
<path d="M279.629 99.058C280.832 95.2163 284.729 93.6448 284.901 89.5703" stroke="#233332" stroke-width="0.8908" stroke-miterlimit="10" stroke-linecap="round" stroke-linejoin="round"/>
<path d="M284.902 106.914C284.902 106.914 290.461 105.866 294.644 107.496" stroke="#233332" stroke-width="0.8908" stroke-miterlimit="10" stroke-linecap="round" stroke-linejoin="round"/>
<path d="M297.164 78.6289L296.305 89.5717" stroke="#233332" stroke-width="0.8908" stroke-miterlimit="10" stroke-linecap="round" stroke-linejoin="round"/>
<path d="M288.348 86.5462L288.863 80.1435L294.651 78.2227L295.51 82.5299C295.797 83.8105 295.396 85.091 294.479 86.0223L289.895 91.6683L288.348 86.5462Z" fill="#E6817D"/>
<path d="M294.651 78.2227L288.863 80.1435L288.348 86.5462C294.651 84.3343 294.651 78.2227 294.651 78.2227Z" fill="#D85145"/>
<path d="M296.656 73.5057L294.651 75.6593C293.734 74.1459 291.613 73.7385 289.551 73.04C286.972 72.2251 286.284 70.2461 286.284 70.2461C285.539 74.6116 283.878 76.0667 283.82 76.1249C283.82 76.2996 283.82 76.4742 283.878 76.6488C284.451 81.0143 287.258 84.2156 290.238 83.8082C292.301 83.5172 294.02 81.3635 294.651 78.1622C298.146 76.9398 296.656 73.5057 296.656 73.5057Z" fill="#E6817D"/>
<path d="M290.638 73.8531C290.638 73.8531 289.206 72.98 288.289 74.2605" stroke="#233332" stroke-miterlimit="10" stroke-linecap="round" stroke-linejoin="round"/>
<path d="M285.995 74.8429C285.995 74.8429 284.734 74.2609 284.219 75.6578" stroke="#233332" stroke-miterlimit="10" stroke-linecap="round" stroke-linejoin="round"/>
<path d="M286.91 74.9609C287.54 76.0087 287.082 77.1728 287.197 78.3369C287.254 78.6862 287.426 79.3846 287.827 79.3846C287.999 79.3846 288.171 79.2682 288.343 79.1518C288.4 79.0936 288.515 78.8608 288.572 78.8608" stroke="#D85145" stroke-miterlimit="10" stroke-linecap="round" stroke-linejoin="round"/>
<path d="M288.059 80.3704C288.689 80.3704 289.319 80.0211 289.892 79.7301C290.236 79.5555 290.58 79.3227 290.809 79.0898C290.809 79.0898 291.439 81.0689 289.491 81.6509L288.059 80.3704Z" fill="#F9F9F9"/>
<path d="M286.284 76.1785C285.883 76.0039 285.081 76.4113 284.852 76.7606" stroke="#D85145" stroke-miterlimit="10" stroke-linecap="round" stroke-linejoin="round"/>
<path d="M290.177 75.1323C289.834 74.8412 288.917 75.1323 288.688 75.4233" stroke="#D85145" stroke-miterlimit="10" stroke-linecap="round" stroke-linejoin="round"/>
</svg>
