<svg width="18" height="20" viewBox="0 0 18 20" fill="none" xmlns="http://www.w3.org/2000/svg">
<path fill-rule="evenodd" clip-rule="evenodd" d="M2.77297 17.562C0.136932 14.926 0.136932 10.6521 2.77297 8.01609L8.42982 2.35924C10.2848 0.504247 13.2923 0.504246 15.1473 2.35924C17.0023 4.21423 17.0023 7.22176 15.1473 9.07675L9.38947 14.8346C8.31553 15.9086 6.57433 15.9086 5.50038 14.8346C4.42644 13.7607 4.42644 12.0195 5.50038 10.9455L11.0562 5.38969C11.3491 5.0968 11.824 5.0968 12.1169 5.38969C12.4098 5.68259 12.4098 6.15746 12.1169 6.45035L6.56104 12.0062C6.07289 12.4943 6.07289 13.2858 6.56104 13.774C7.0492 14.2621 7.84065 14.2621 8.32881 13.774L14.0867 8.01609C15.3559 6.74689 15.3559 4.6891 14.0867 3.4199C12.8175 2.15069 10.7597 2.15069 9.49049 3.4199L3.83363 9.07675C1.78338 11.127 1.78338 14.4511 3.83363 16.5014C5.88388 18.5516 9.208 18.5516 11.2583 16.5014L16.7131 11.0465C17.006 10.7537 17.4808 10.7537 17.7737 11.0465C18.0666 11.3394 18.0666 11.8143 17.7737 12.1072L12.3189 17.562C9.68287 20.1981 5.40901 20.1981 2.77297 17.562Z" fill="white"/>
</svg>
