<svg width="8" height="8" viewBox="0 0 8 8" fill="none" xmlns="http://www.w3.org/2000/svg">
<path d="M7.85369 0.146291C7.65862 -0.0487637 7.34576 -0.0487637 7.15068 0.146291L4 3.29661L0.849322 0.146291C0.654245 -0.0487637 0.341385 -0.0487637 0.146308 0.146291C-0.0487693 0.341346 -0.0487693 0.654169 0.146308 0.849224L3.29699 3.99954L0.146308 7.14986C-0.0487693 7.34491 -0.0487693 7.65773 0.146308 7.85279C0.242006 7.94848 0.370831 8 0.495975 8C0.621119 8 0.749943 7.95216 0.845641 7.85279L3.99632 4.70248L7.147 7.85279C7.2427 7.94848 7.37152 8 7.49667 8C7.62549 8 7.75063 7.95216 7.84633 7.85279C8.04141 7.65773 8.04141 7.34491 7.84633 7.14986L4.70301 3.99954L7.85369 0.849224C8.04877 0.654169 8.04877 0.341346 7.85369 0.146291Z" fill="#537E36"/>
</svg>
