<svg width="24" height="26" viewBox="0 0 24 26" fill="none" xmlns="http://www.w3.org/2000/svg">
<path d="M9.66666 1.92762C9.11437 1.92762 8.66666 1.49611 8.66666 0.963809C8.66666 0.431512 9.11437 0 9.66666 0H14.3807C14.933 0 15.3807 0.431512 15.3807 0.963809C15.3807 1.49611 14.933 1.92762 14.3807 1.92762H9.66666Z" fill="#A7D08E"/>
<path d="M5.04044 2.50835C5.43096 2.88474 5.43096 3.49499 5.04044 3.87138L1.70711 7.08408C1.31658 7.46047 0.683417 7.46047 0.292893 7.08408C-0.0976311 6.70768 -0.0976311 6.09743 0.292893 5.72104L3.62623 2.50835C4.01675 2.13196 4.64992 2.13196 5.04044 2.50835Z" fill="#A7D08E"/>
<path d="M12.3333 5.43875C6.99458 5.43875 2.66667 9.61003 2.66667 14.7556C2.66667 19.9011 6.99458 24.0724 12.3333 24.0724C17.6721 24.0724 22 19.9011 22 14.7556C22 14.2233 22.4477 13.7918 23 13.7918C23.5523 13.7918 24 14.2233 24 14.7556C24 20.9657 18.7767 26 12.3333 26C5.89001 26 0.666667 20.9657 0.666667 14.7556C0.666667 8.54544 5.89001 3.51113 12.3333 3.51113C12.8856 3.51113 13.3333 3.94265 13.3333 4.47494C13.3333 5.00724 12.8856 5.43875 12.3333 5.43875Z" fill="#A7D08E"/>
<path d="M19.2509 8.79828C19.5606 8.4146 19.5253 7.86875 19.1687 7.52504C18.8121 7.18134 18.2457 7.14735 17.8476 7.44577L13.6211 10.6141L10.8592 12.5155C10.2693 12.9216 9.91912 13.5774 9.91912 14.2762C9.91912 15.4711 10.9242 16.4399 12.1641 16.4399C12.8891 16.4399 13.5694 16.1024 13.9909 15.5338L15.9636 12.8719L19.2509 8.79828Z" fill="#A7D08E"/>
</svg>
