<svg width="18" height="16" viewBox="0 0 18 16" fill="none" xmlns="http://www.w3.org/2000/svg">
<path fill-rule="evenodd" clip-rule="evenodd" d="M8.66703 13.5202C8.77416 13.584 8.88869 13.6123 9 13.6109C9.1113 13.6123 9.22584 13.584 9.33297 13.5202L10.2834 12.954C12.1475 11.8435 14.4272 11.6621 16.4455 12.4637C17.1901 12.7594 18 12.215 18 11.4188V1.72714C18 1.24671 17.7054 0.81468 17.2562 0.636253C14.6565 -0.396208 11.7203 -0.162603 9.31942 1.26769L9 1.45798L8.68058 1.26769C6.27972 -0.162603 3.34345 -0.396208 0.743845 0.636253C0.294589 0.81468 0 1.24671 0 1.72714V11.4188C0 12.215 0.80991 12.7594 1.55446 12.4637C3.5728 11.6621 5.85253 11.8435 7.71657 12.954L8.66703 13.5202ZM1.25581 1.77604V11.2415C3.59647 10.3703 6.21359 10.6045 8.36268 11.8848L8.37209 11.8904V2.53803L8.03447 2.33689C5.98416 1.11544 3.47972 0.909006 1.25581 1.77604ZM9.63732 11.8848L9.62791 11.8904V2.53803L9.96553 2.33689C12.0158 1.11544 14.5203 0.909006 16.7442 1.77604V11.2415C14.4035 10.3703 11.7864 10.6045 9.63732 11.8848Z" fill="#A7D08E"/>
<path d="M6.71874 13.8579C5.02435 12.8765 2.92914 12.8765 1.23475 13.8579L1.14873 13.9077C0.849188 14.0812 0.748009 14.4629 0.922743 14.7603C1.09748 15.0578 1.48196 15.1582 1.7815 14.9847L1.86752 14.9349C3.1709 14.18 4.78259 14.18 6.08597 14.9349L6.99623 15.4621C8.23444 16.1793 9.76556 16.1793 11.0038 15.4621L11.914 14.9349C13.2174 14.18 14.8291 14.18 16.1325 14.9349L16.2185 14.9847C16.518 15.1582 16.9025 15.0578 17.0773 14.7603C17.252 14.4629 17.1508 14.0812 16.8513 13.9077L16.7653 13.8579C15.0709 12.8765 12.9757 12.8765 11.2813 13.8579L10.371 14.3851C9.5238 14.8758 8.4762 14.8758 7.629 14.3851L6.71874 13.8579Z" fill="#A7D08E"/>
</svg>
