<svg width="17" height="17" viewBox="0 0 17 17" fill="none" xmlns="http://www.w3.org/2000/svg">
<path fill-rule="evenodd" clip-rule="evenodd" d="M7.27461 2.48562C3.95405 2.82689 1.36399 5.63267 1.36399 9.04339C1.36399 12.6844 4.31561 15.636 7.95661 15.636C11.3673 15.636 14.1731 13.0459 14.5144 9.72539H7.95661C7.57995 9.72539 7.27461 9.42005 7.27461 9.04339V2.48562ZM0 9.04339C0 4.64908 3.56229 1.08679 7.95661 1.08679C8.33326 1.08679 8.6386 1.39212 8.6386 1.76878V8.3614H15.2312C15.6079 8.3614 15.9132 8.66674 15.9132 9.04339C15.9132 13.4377 12.3509 17 7.95661 17C3.56229 17 0 13.4377 0 9.04339Z" fill="#A7D08E"/>
<path fill-rule="evenodd" clip-rule="evenodd" d="M11.1392 1.47202V5.86075H15.528C15.016 3.69255 13.3075 1.98399 11.1392 1.47202ZM10.6828 0.00618365C13.9748 0.415861 16.5841 3.02517 16.9938 6.31722C17.0558 6.81558 16.6428 7.22474 16.1405 7.22474H10.2299C9.97882 7.22474 9.77526 7.02118 9.77526 6.77008V0.859454C9.77526 0.357246 10.1844 -0.0558349 10.6828 0.00618365Z" fill="#A7D08E"/>
</svg>
