<svg width="17" height="17" viewBox="0 0 17 17" fill="none" xmlns="http://www.w3.org/2000/svg">
<path fill-rule="evenodd" clip-rule="evenodd" d="M7.13034 0.839132C7.74061 -0.279712 9.25939 -0.279709 9.86966 0.839133L11.7386 4.26551C11.9108 4.58134 12.2086 4.79687 12.548 4.8514L15.6514 5.35005C17.0042 5.56742 17.4787 7.38447 16.4252 8.31302L14.1639 10.306C13.8466 10.5857 13.6973 11.027 13.7744 11.4577L14.4078 14.9963C14.6559 16.3825 13.2881 17.4595 12.1145 16.8021L9.02698 15.0726C8.69713 14.8878 8.30287 14.8878 7.97302 15.0726L4.88553 16.8021C3.71189 17.4595 2.34405 16.3825 2.59217 14.9963L3.22557 11.4577C3.30267 11.027 3.15343 10.5857 2.83605 10.306L0.574847 8.31302C-0.478691 7.38446 -0.00416875 5.56742 1.34862 5.35005L4.45204 4.8514C4.79143 4.79687 5.08918 4.58134 5.26145 4.26551L7.13034 0.839132ZM8.69566 1.56384C8.60848 1.404 8.39151 1.404 8.30433 1.56384L6.43544 4.99022C6.05645 5.68504 5.4014 6.15919 4.65475 6.27916L1.55133 6.77782C1.35807 6.80887 1.29029 7.06845 1.44079 7.2011L3.702 9.19407C4.40023 9.80947 4.72854 10.7802 4.55893 11.7278L3.92553 15.2664C3.89009 15.4644 4.08549 15.6183 4.25316 15.5244L7.34064 13.7949C8.06632 13.3884 8.93368 13.3884 9.65936 13.7949L12.7468 15.5244C12.9145 15.6183 13.1099 15.4644 13.0745 15.2664L12.4411 11.7278C12.2715 10.7802 12.5998 9.80947 13.298 9.19407L15.5592 7.2011C15.7097 7.06845 15.6419 6.80887 15.4487 6.77782L12.3453 6.27917C11.5986 6.15919 10.9435 5.68504 10.5646 4.99022L8.69566 1.56384Z" fill="#A7D08E"/>
</svg>
