<svg width="17" height="14" viewBox="0 0 17 14" fill="none" xmlns="http://www.w3.org/2000/svg">
<path d="M10.3057 4.21735C10.3057 3.44894 10.9121 2.82602 11.6601 2.82602C12.408 2.82602 13.0144 3.44894 13.0144 4.21735C13.0144 4.98576 12.408 5.60868 11.6601 5.60868C10.9121 5.60868 10.3057 4.98576 10.3057 4.21735Z" fill="#A7D08E"/>
<path fill-rule="evenodd" clip-rule="evenodd" d="M4.22717 0.190432C7.07036 -0.0634771 9.92964 -0.0634772 12.7728 0.190431L14.1364 0.312202C15.4411 0.428718 16.4981 1.4487 16.6928 2.77917C17.1024 5.57733 17.1024 8.42267 16.6928 11.2208C16.4981 12.5513 15.4411 13.5713 14.1364 13.6878L12.7728 13.8096C9.92964 14.0635 7.07036 14.0635 4.22717 13.8096L2.86362 13.6878C1.5589 13.5713 0.501934 12.5513 0.307186 11.2208C-0.102395 8.42267 -0.102395 5.57733 0.307186 2.77917C0.501934 1.4487 1.5589 0.428718 2.86362 0.312202L4.22717 0.190432ZM12.6555 1.57653C9.89039 1.32959 7.1096 1.32959 4.34445 1.57653L2.9809 1.6983C2.29984 1.75912 1.7481 2.29155 1.64644 2.98606C1.41392 4.5746 1.3202 6.17914 1.3653 7.78057L4.86111 4.18922C4.99298 4.05374 5.1734 3.98013 5.35982 3.98576C5.54623 3.99139 5.72214 4.07575 5.84604 4.21895L9.16089 8.05008L11.4459 7.26759C11.7015 7.18008 11.9832 7.25649 12.1634 7.46218L15.3407 11.089C15.3456 11.0642 15.3499 11.0392 15.3536 11.0139C15.7431 8.35294 15.7431 5.64706 15.3536 2.98606C15.2519 2.29156 14.7002 1.75912 14.0191 1.6983L12.6555 1.57653ZM14.4772 12.1832L11.4534 8.73161L9.16556 9.51507C8.90858 9.60307 8.62528 9.52527 8.44531 9.31728L5.31093 5.69473L1.47942 9.63097C1.52346 10.093 1.57914 10.5541 1.64644 11.0139C1.7481 11.7084 2.29984 12.2409 2.9809 12.3017L4.34445 12.4235C7.1096 12.6704 9.8904 12.6704 12.6555 12.4235L14.0191 12.3017C14.1805 12.2873 14.3346 12.2464 14.4772 12.1832Z" fill="#A7D08E"/>
</svg>
