<svg width="14" height="17" viewBox="0 0 14 17" fill="none" xmlns="http://www.w3.org/2000/svg">
<path d="M7 3.8419C5.09038 3.8419 3.54938 5.45474 3.54938 7.4354C3.54938 9.41606 5.09038 11.0289 7 11.0289C8.90962 11.0289 10.4506 9.41606 10.4506 7.4354C10.4506 5.45474 8.90962 3.8419 7 3.8419ZM4.80747 7.4354C4.80747 6.16653 5.79299 5.14511 7 5.14511C8.20701 5.14511 9.19253 6.16653 9.19253 7.4354C9.19253 8.70427 8.20701 9.72569 7 9.72569C5.79299 9.72569 4.80747 8.70427 4.80747 7.4354ZM6.84766 0.9C3.74954 0.9 1.17542 3.37674 0.921648 6.58676C0.785442 8.30964 1.29577 10.0209 2.3461 11.3602L5.7271 15.6714C6.38436 16.5095 7.61565 16.5095 8.2729 15.6714L11.6539 11.3602C12.7042 10.0209 13.2146 8.30964 13.0784 6.58676C12.8246 3.37674 10.2505 0.9 7.15234 0.9H6.84766ZM2.17554 6.69315C2.37641 4.15235 4.41144 2.20321 6.84766 2.20321H7.15234C9.58856 2.20321 11.6236 4.15235 11.8245 6.69315C11.9343 8.08206 11.5227 9.46064 10.6774 10.5385L7.29641 14.8497C7.14258 15.0458 6.85742 15.0458 6.70359 14.8497L3.3226 10.5385C2.47731 9.46064 2.06574 8.08206 2.17554 6.69315Z" fill="#A7D08E" stroke="#A7D08E" stroke-width="0.2"/>
</svg>
