<svg width="14" height="15" viewBox="0 0 14 15" fill="none" xmlns="http://www.w3.org/2000/svg">
<path fill-rule="evenodd" clip-rule="evenodd" d="M1.80324 5.80229C3.23186 9.12243 5.77405 11.762 8.93432 13.1923L8.9443 13.1968L9.55483 13.4873C10.3323 13.857 11.246 13.5944 11.7445 12.8581L12.7631 11.3535C12.8253 11.2616 12.8093 11.1338 12.7266 11.0626L10.9484 9.53145C10.86 9.45533 10.73 9.47306 10.6623 9.57046L9.97025 10.5672C9.80217 10.8093 9.49863 10.8934 9.24144 10.7692C6.87837 9.62777 4.97944 7.60108 3.91002 5.07899C3.79363 4.8045 3.87244 4.48054 4.09925 4.30115L5.03314 3.56249C5.12439 3.49032 5.141 3.35158 5.06969 3.25723L3.63489 1.35907C3.56821 1.27084 3.44851 1.25371 3.36241 1.32006L1.945 2.41215C1.25057 2.9472 1.00601 3.93068 1.36047 4.76283L1.80276 5.80118C1.80292 5.80155 1.80308 5.80192 1.80324 5.80229ZM8.46121 14.3681C5.02736 12.8124 2.26546 9.94348 0.713162 6.33512L0.712227 6.33294L0.269009 5.29242C-0.321761 3.9055 0.0858294 2.26637 1.24321 1.37462L2.66062 0.282526C3.2634 -0.181902 4.10126 -0.0619533 4.56805 0.555594L6.00284 2.45376C6.50206 3.1142 6.38578 4.08535 5.74701 4.59059L5.21187 5.01385C6.11582 6.88587 7.54848 8.41494 9.30248 9.37971L9.69907 8.80856C10.1725 8.1268 11.0824 8.0027 11.7012 8.53551L13.4794 10.0666C14.0582 10.565 14.1705 11.4596 13.7349 12.1029L12.7163 13.6075C11.8856 14.8347 10.3626 15.2723 9.06688 14.6561L8.46121 14.3681Z" fill="#A7D08E"/>
</svg>
