<svg width="17" height="15" viewBox="0 0 17 15" fill="none" xmlns="http://www.w3.org/2000/svg">
<path fill-rule="evenodd" clip-rule="evenodd" d="M4.20769 2.82639V1.80453C4.20769 1.04783 4.78037 0.404987 5.55448 0.292737L6.65686 0.132889C7.87879 -0.0442961 9.12123 -0.0442963 10.3432 0.132889L11.4455 0.292737C12.2196 0.404987 12.7923 1.04783 12.7923 1.80453V2.82639L14.3412 2.94725C15.5271 3.03979 16.4945 3.90298 16.6847 5.03835C17.1051 7.54764 17.1051 10.106 16.6847 12.6153C16.4945 13.7506 15.5271 14.6138 14.3412 14.7064L12.6497 14.8384C9.88771 15.0539 7.11229 15.0539 4.35035 14.8384L2.6588 14.7064C1.47286 14.6138 0.505475 13.7506 0.315274 12.6153C-0.105091 10.106 -0.105091 7.54764 0.315274 5.03835C0.505475 3.90298 1.47286 3.03979 2.6588 2.94725L4.20769 2.82639ZM6.85793 1.42871C7.94656 1.27086 9.05346 1.27086 10.1421 1.42871L11.2445 1.58856C11.355 1.6046 11.4369 1.69643 11.4369 1.80453V2.73452C9.48055 2.62665 7.51947 2.62665 5.56316 2.73452V1.80453C5.56316 1.69643 5.64497 1.6046 5.75556 1.58856L6.85793 1.42871ZM4.4594 4.12133C7.14876 3.91148 9.85124 3.91148 12.5406 4.12133L14.2321 4.25332C14.7962 4.29733 15.2562 4.70785 15.3467 5.24782C15.403 5.58407 15.4514 5.92125 15.4917 6.2591C11.0841 8.35719 5.91592 8.35719 1.50829 6.25911C1.54864 5.92126 1.59698 5.58407 1.65331 5.24782C1.74377 4.70785 2.20384 4.29733 2.76785 4.25332L4.4594 4.12133ZM1.3873 7.65334C5.905 9.63954 11.095 9.63954 15.6127 7.65333C15.6988 9.23984 15.6102 10.833 15.3467 12.4058C15.2562 12.9458 14.7962 13.3563 14.2321 13.4003L12.5406 13.5323C9.85124 13.7421 7.14876 13.7421 4.4594 13.5323L2.76785 13.4003C2.20384 13.3563 1.74377 12.9458 1.65331 12.4058C1.38983 10.833 1.30117 9.23985 1.3873 7.65334Z" fill="#A7D08E"/>
</svg>
