<svg width="18" height="18" viewBox="0 0 18 18" fill="none" xmlns="http://www.w3.org/2000/svg">
<path d="M1.31367 11.7107L0.583488 11.882L1.31367 11.7107ZM1.31367 6.28927L0.583488 6.11799L1.31367 6.28927ZM16.6863 6.28928L15.9562 6.46055L16.6863 6.28928ZM16.6863 11.7107L15.9562 11.5394L16.6863 11.7107ZM11.7107 16.6863L11.5394 15.9562L11.7107 16.6863ZM6.28928 16.6863L6.46055 15.9562L6.28928 16.6863ZM6.28927 1.31367L6.46055 2.04385L6.28927 1.31367ZM11.7107 1.31367L11.5395 2.04385L11.7107 1.31367ZM5.47594 11.7741C5.47594 12.1883 5.81172 12.5241 6.22594 12.5241C6.64015 12.5241 6.97594 12.1883 6.97594 11.7741H5.47594ZM6.97594 8.07531C6.97594 7.6611 6.64015 7.32531 6.22594 7.32531C5.81172 7.32531 5.47594 7.6611 5.47594 8.07531H6.97594ZM11.0241 11.7741C11.0241 12.1883 11.3598 12.5241 11.7741 12.5241C12.1883 12.5241 12.5241 12.1883 12.5241 11.7741H11.0241ZM12.5241 9C12.5241 8.58579 12.1883 8.25 11.7741 8.25C11.3598 8.25 11.0241 8.58579 11.0241 9H12.5241ZM8.25 10.8494C8.25 11.2636 8.58579 11.5994 9 11.5994C9.41421 11.5994 9.75 11.2636 9.75 10.8494H8.25ZM9.75 6.22594C9.75 5.81173 9.41421 5.47594 9 5.47594C8.58579 5.47594 8.25 5.81173 8.25 6.22594H9.75ZM2.04385 11.5395C1.65205 9.86915 1.65205 8.13085 2.04385 6.46055L0.583488 6.11799C0.138837 8.01361 0.138837 9.9864 0.583488 11.882L2.04385 11.5395ZM15.9562 6.46055C16.3479 8.13085 16.3479 9.86915 15.9562 11.5394L17.4165 11.882C17.8612 9.98639 17.8612 8.01361 17.4165 6.118L15.9562 6.46055ZM11.5394 15.9562C9.86915 16.3479 8.13085 16.3479 6.46055 15.9562L6.118 17.4165C8.01361 17.8612 9.98639 17.8612 11.882 17.4165L11.5394 15.9562ZM6.46055 2.04385C8.13085 1.65205 9.86915 1.65205 11.5395 2.04385L11.882 0.583487C9.98639 0.138837 8.01361 0.138838 6.118 0.583487L6.46055 2.04385ZM6.46055 15.9562C4.26905 15.4421 2.55791 13.731 2.04385 11.5395L0.583488 11.882C1.22765 14.6282 3.37186 16.7724 6.118 17.4165L6.46055 15.9562ZM11.882 17.4165C14.6281 16.7724 16.7724 14.6281 17.4165 11.882L15.9562 11.5394C15.4421 13.731 13.731 15.4421 11.5394 15.9562L11.882 17.4165ZM11.5395 2.04385C13.731 2.55791 15.4421 4.26905 15.9562 6.46055L17.4165 6.118C16.7724 3.37186 14.6281 1.22764 11.882 0.583487L11.5395 2.04385ZM6.118 0.583487C3.37186 1.22764 1.22765 3.37185 0.583488 6.11799L2.04385 6.46055C2.55791 4.26905 4.26905 2.55791 6.46055 2.04385L6.118 0.583487ZM6.97594 11.7741V8.07531H5.47594V11.7741H6.97594ZM12.5241 11.7741V9H11.0241V11.7741H12.5241ZM9.75 10.8494V6.22594H8.25V10.8494H9.75Z" fill="#A7D08E"/>
</svg>
