<svg width="37" height="15" viewBox="0 0 37 15" fill="none" xmlns="http://www.w3.org/2000/svg">
<path fill-rule="evenodd" clip-rule="evenodd" d="M36.9995 7.75024C36.9995 5.18679 35.7251 3.16406 33.2893 3.16406C30.8432 3.16406 29.3633 5.18679 29.3633 7.73021C29.3633 10.7443 31.1105 12.2663 33.6182 12.2663C34.8412 12.2663 35.7662 11.996 36.4651 11.6154V9.61274C35.7662 9.9532 34.9645 10.1635 33.9471 10.1635C32.9501 10.1635 32.0663 9.82303 31.9532 8.64144H36.9789C36.9789 8.51126 36.9995 7.99056 36.9995 7.75024ZM31.9224 6.79896C31.9224 5.66743 32.6315 5.1968 33.279 5.1968C33.906 5.1968 34.574 5.66743 34.574 6.79896H31.9224Z" fill="white"/>
<path fill-rule="evenodd" clip-rule="evenodd" d="M25.3973 3.16406C24.3901 3.16406 23.7427 3.62468 23.3829 3.94511L23.2493 3.32428H20.9883V15L23.5577 14.4693L23.5679 11.6355C23.9379 11.8958 24.4826 12.2663 25.3871 12.2663C27.2267 12.2663 28.902 10.8244 28.902 7.6501C28.8917 4.74619 27.1959 3.16406 25.3973 3.16406ZM24.7807 10.0633C24.1743 10.0633 23.8146 9.85307 23.5679 9.59272L23.5577 5.87771C23.8249 5.58732 24.1949 5.38706 24.7807 5.38706C25.7159 5.38706 26.3634 6.40843 26.3634 7.7202C26.3634 9.062 25.7262 10.0633 24.7807 10.0633Z" fill="white"/>
<path fill-rule="evenodd" clip-rule="evenodd" d="M17.4531 2.57346L20.0328 2.03274V0L17.4531 0.530714V2.57346Z" fill="white"/>
<path d="M20.0328 3.33594H17.4531V12.0977H20.0328V3.33594Z" fill="white"/>
<path fill-rule="evenodd" clip-rule="evenodd" d="M14.6891 4.07692L14.5246 3.33593H12.3047V12.0977H14.8741V6.15973C15.4804 5.38869 16.5082 5.52888 16.8268 5.63903V3.33593C16.4979 3.21577 15.2955 2.99547 14.6891 4.07692Z" fill="white"/>
<path fill-rule="evenodd" clip-rule="evenodd" d="M9.54925 1.16016L7.04153 1.68086L7.03125 9.70165C7.03125 11.1836 8.17206 12.2751 9.69313 12.2751C10.5359 12.2751 11.1525 12.1249 11.4917 11.9447V9.91194C11.1628 10.0421 9.53897 10.5027 9.53897 9.02074V5.46595H11.4917V3.33308H9.53897L9.54925 1.16016Z" fill="white"/>
<path fill-rule="evenodd" clip-rule="evenodd" d="M2.60022 5.87772C2.60022 5.48719 2.9291 5.33699 3.47381 5.33699C4.2549 5.33699 5.24154 5.5673 6.02264 5.97785V3.62468C5.1696 3.29424 4.32684 3.16406 3.47381 3.16406C1.38747 3.16406 0 4.22549 0 5.99788C0 8.7616 3.90546 8.321 3.90546 9.51261C3.90546 9.97323 3.49436 10.1234 2.91882 10.1234C2.06578 10.1234 0.976366 9.78297 0.113053 9.32235V11.7056C1.06886 12.1061 2.03495 12.2763 2.91882 12.2763C5.05655 12.2763 6.52624 11.2449 6.52624 9.45253C6.51596 6.46851 2.60022 6.99923 2.60022 5.87772Z" fill="white"/>
</svg>
