<svg width="29" height="24" viewBox="0 0 29 24" fill="none" xmlns="http://www.w3.org/2000/svg">
<path d="M18.9879 12C18.9879 10.8273 19.9377 9.87664 21.1094 9.87664C22.2811 9.87664 23.2309 10.8273 23.2309 12C23.2309 13.1727 22.2811 14.1233 21.1094 14.1233C19.9377 14.1233 18.9879 13.1727 18.9879 12Z" fill="#A7D08E"/>
<path fill-rule="evenodd" clip-rule="evenodd" d="M25.9767 4.46072C25.0464 2.27273 22.9908 0.69986 20.5446 0.442229L19.6227 0.345128C14.9662 -0.145299 10.2695 -0.112959 5.62024 0.441546L5.00932 0.514408C2.64907 0.795906 0.778952 2.64153 0.464576 4.99963C-0.154859 9.64596 -0.154859 14.354 0.464576 19.0004C0.778952 21.3585 2.64907 23.2041 5.00933 23.4856L5.62024 23.5585C10.2695 24.113 14.9662 24.1453 19.6227 23.6549L20.5446 23.5578C22.9908 23.3001 25.0464 21.7273 25.9767 19.5393C27.4465 19.1013 28.5684 17.8259 28.7525 16.25C29.0825 13.4263 29.0825 10.5737 28.7525 7.74995C28.5684 6.17411 27.4465 4.89872 25.9767 4.46072ZM19.4007 2.45681C14.9015 1.98296 10.3635 2.0142 5.87127 2.54998L5.26035 2.62284C3.86184 2.78963 2.75373 3.88322 2.56746 5.28047C1.97287 9.7404 1.97287 14.2596 2.56746 18.7195C2.75373 20.1168 3.86184 21.2104 5.26036 21.3772L5.87127 21.45C10.3635 21.9858 14.9015 22.017 19.4007 21.5432L20.3226 21.4461C21.5256 21.3194 22.59 20.7259 23.3276 19.845C21.1945 19.9695 19.0331 19.9138 16.9254 19.6781C15.1301 19.4772 13.6782 18.0623 13.4664 16.25C13.1364 13.4263 13.1364 10.5737 13.4664 7.74995C13.6782 5.93766 15.1301 4.52275 16.9254 4.32192C19.0331 4.08615 21.1945 4.03052 23.3276 4.15502C22.59 3.27408 21.5256 2.68061 20.3226 2.55392L19.4007 2.45681ZM24.3304 6.35855C24.3313 6.36398 24.3321 6.36941 24.333 6.37485L24.3415 6.4299L24.6225 6.38623C24.7679 6.40063 24.913 6.41593 25.0578 6.43213C25.8886 6.52506 26.5502 7.18209 26.6454 7.99661C26.9562 10.6565 26.9562 13.3435 26.6454 16.0034C26.5502 16.8179 25.8886 17.4749 25.0578 17.5679C24.913 17.5841 24.7678 17.5994 24.6225 17.6138L24.3415 17.5701L24.333 17.6251C24.3321 17.6306 24.3313 17.636 24.3304 17.6414C21.9563 17.8564 19.5214 17.8319 17.1611 17.5679C16.3303 17.4749 15.6687 16.8179 15.5735 16.0034C15.2627 13.3435 15.2627 10.6565 15.5735 7.99661C15.6687 7.18209 16.3303 6.52506 17.1611 6.43213C19.5214 6.1681 21.9563 6.14357 24.3304 6.35855Z" fill="#A7D08E"/>
</svg>
